<?xml version="1.0" encoding="UTF-8" standalone="no"?>
<!-- Created with Inkscape (http://www.inkscape.org/) -->

<svg
   xmlns:dc="http://purl.org/dc/elements/1.1/"
   xmlns:cc="http://creativecommons.org/ns#"
   xmlns:rdf="http://www.w3.org/1999/02/22-rdf-syntax-ns#"
   xmlns:svg="http://www.w3.org/2000/svg"
   xmlns="http://www.w3.org/2000/svg"
   xmlns:xlink="http://www.w3.org/1999/xlink"
   xmlns:sodipodi="http://sodipodi.sourceforge.net/DTD/sodipodi-0.dtd"
   xmlns:inkscape="http://www.inkscape.org/namespaces/inkscape"
   id="svg3643"
   version="1.1"
   inkscape:version="0.48.2 r9819"
   width="1488.1875"
   height="1052.3625"
   xml:space="preserve"
   sodipodi:docname="greenhouse-demo-board-TC.svg"><metadata
     id="metadata3649"><rdf:RDF><cc:Work
         rdf:about=""><dc:format>image/svg+xml</dc:format><dc:type
           rdf:resource="http://purl.org/dc/dcmitype/StillImage" /><dc:title></dc:title></cc:Work></rdf:RDF></metadata><defs
     id="defs3647"><clipPath
       clipPathUnits="userSpaceOnUse"
       id="clipPath3657"><path
         d="m 0,841.89 1190.55,0 L 1190.55,0 0,0 0,841.89 z"
         id="path3659" /></clipPath><linearGradient
       id="linearGradient5705"><stop
         style="stop-color:#d3d3d3;stop-opacity:1;"
         offset="0"
         id="stop5707" /><stop
         style="stop-color:#ffffff;stop-opacity:1;"
         offset="1"
         id="stop5709" /></linearGradient><radialGradient
       inkscape:collect="always"
       xlink:href="#linearGradient7555"
       id="radialGradient7561"
       cx="24.25"
       cy="99.249969"
       fx="24.25"
       fy="99.249969"
       r="40.25"
       gradientTransform="matrix(1,0,0,0.217391,0,95.67391)"
       gradientUnits="userSpaceOnUse" /><linearGradient
       inkscape:collect="always"
       xlink:href="#linearGradient7529"
       id="linearGradient7553"
       gradientUnits="userSpaceOnUse"
       x1="39.8125"
       y1="71.043076"
       x2="39.8125"
       y2="75.246735" /><linearGradient
       inkscape:collect="always"
       xlink:href="#linearGradient5983"
       id="linearGradient7551"
       gradientUnits="userSpaceOnUse"
       x1="6.34375"
       y1="72.25"
       x2="45.65625"
       y2="72.25" /><linearGradient
       inkscape:collect="always"
       xlink:href="#linearGradient7529"
       id="linearGradient7535"
       x1="39.8125"
       y1="71.043076"
       x2="39.8125"
       y2="75.246735"
       gradientUnits="userSpaceOnUse" /><linearGradient
       inkscape:collect="always"
       xlink:href="#linearGradient5983"
       id="linearGradient5989"
       x1="6.34375"
       y1="72.25"
       x2="45.65625"
       y2="72.25"
       gradientUnits="userSpaceOnUse" /><linearGradient
       id="WhiteTransparent"><stop
         id="stopWhiteFull"
         offset="0"
         style="stop-color:#ffffff;stop-opacity:1;" /><stop
         id="stopWhiteTransparent"
         offset="1"
         style="stop-color:#ffffff;stop-opacity:0;" /></linearGradient><linearGradient
       id="TransparentWhite"><stop
         id="stopwhitefull"
         offset="0"
         style="stop-color:#ffffff;stop-opacity:0;" /><stop
         id="stopwhitetransparent"
         offset="1"
         style="stop-color:#ffffff;stop-opacity:1;" /></linearGradient><linearGradient
       id="linearGradient3057"><stop
         id="stop3058"
         offset="0.0000000"
         style="stop-color:#000000;stop-opacity:0.19191919;" /><stop
         id="stop3059"
         offset="0.34210527"
         style="stop-color:#000000;stop-opacity:0.14141414;" /><stop
         id="stop3060"
         offset="1.0000000"
         style="stop-color:#ffffff;stop-opacity:0.0000000;" /></linearGradient><linearGradient
       id="linearGradient2363"><stop
         id="stop2364"
         offset="0.0000000"
         style="stop-color:#ffffff;stop-opacity:0.0000000;" /><stop
         id="stop2365"
         offset="1.0000000"
         style="stop-color:#ffffff;stop-opacity:1.0000000;" /></linearGradient><linearGradient
       id="linearGradient2372"><stop
         id="stop2373"
         offset="0.0000000"
         style="stop-color:#000000;stop-opacity:0.47058824;" /><stop
         id="stop2374"
         offset="1.0000000"
         style="stop-color:#000000;stop-opacity:0.0000000;" /></linearGradient><linearGradient
       id="linearGradient2347"><stop
         id="stop2348"
         offset="0.0000000"
         style="stop-color:#ffffff;stop-opacity:0.0000000;" /><stop
         id="stop2349"
         offset="1.0000000"
         style="stop-color:#ffffff;stop-opacity:0.47058824;" /></linearGradient><linearGradient
       id="linearGradient2341"><stop
         id="stop2342"
         offset="0.0000000"
         style="stop-color:#ffffff;stop-opacity:0.15686275;" /><stop
         id="stop2343"
         offset="1.0000000"
         style="stop-color:#ffffff;stop-opacity:1.0000000;" /></linearGradient><linearGradient
       inkscape:collect="always"
       id="linearGradient5983"><stop
         style="stop-color:#ffffff;stop-opacity:1;"
         offset="0"
         id="stop5985" /><stop
         style="stop-color:#ffffff;stop-opacity:0;"
         offset="1"
         id="stop5987" /></linearGradient><linearGradient
       inkscape:collect="always"
       id="linearGradient7529"><stop
         style="stop-color:#ffffff;stop-opacity:1;"
         offset="0"
         id="stop7531" /><stop
         style="stop-color:#ffffff;stop-opacity:0;"
         offset="1"
         id="stop7533" /></linearGradient><linearGradient
       id="linearGradient7555"><stop
         style="stop-color:#2e2e2e;stop-opacity:0.46875000;"
         offset="0.0000000"
         id="stop7557" /><stop
         style="stop-color:#2e2e2e;stop-opacity:0;"
         offset="1"
         id="stop7559" /></linearGradient><linearGradient
       id="linearGradient2424"><stop
         style="stop-color:#ffffff;stop-opacity:1;"
         offset="0"
         id="stop2426" /><stop
         style="stop-color:#ffffff;stop-opacity:0;"
         offset="1"
         id="stop2428" /></linearGradient><linearGradient
       id="linearGradient2418"><stop
         style="stop-color:#ffffff;stop-opacity:0;"
         offset="0"
         id="stop2420" /><stop
         style="stop-color:#ffffff;stop-opacity:1;"
         offset="1"
         id="stop2422" /></linearGradient><linearGradient
       id="linearGradient2409"><stop
         style="stop-color:#000000;stop-opacity:0.19191919;"
         offset="0.0000000"
         id="stop2411" /><stop
         style="stop-color:#000000;stop-opacity:0.14141414;"
         offset="0.34210527"
         id="stop2413" /><stop
         style="stop-color:#ffffff;stop-opacity:0.0000000;"
         offset="1.0000000"
         id="stop2415" /></linearGradient><linearGradient
       id="linearGradient2402"><stop
         style="stop-color:#ffffff;stop-opacity:0.0000000;"
         offset="0.0000000"
         id="stop2404" /><stop
         style="stop-color:#ffffff;stop-opacity:1.0000000;"
         offset="1.0000000"
         id="stop2406" /></linearGradient><linearGradient
       id="linearGradient2395"><stop
         style="stop-color:#000000;stop-opacity:0.47058824;"
         offset="0.0000000"
         id="stop2397" /><stop
         style="stop-color:#000000;stop-opacity:0.0000000;"
         offset="1.0000000"
         id="stop2399" /></linearGradient><linearGradient
       id="linearGradient2388"><stop
         style="stop-color:#ffffff;stop-opacity:0.0000000;"
         offset="0.0000000"
         id="stop2390" /><stop
         style="stop-color:#ffffff;stop-opacity:0.47058824;"
         offset="1.0000000"
         id="stop2392" /></linearGradient><linearGradient
       id="linearGradient2382"><stop
         style="stop-color:#ffffff;stop-opacity:0.15686275;"
         offset="0.0000000"
         id="stop2384" /><stop
         style="stop-color:#ffffff;stop-opacity:1.0000000;"
         offset="1.0000000"
         id="stop2386" /></linearGradient><linearGradient
       y2="211.3031"
       x2="576.57422"
       y1="133.76495"
       x1="575.89093"
       gradientTransform="translate(-208.2214,109.7383)"
       gradientUnits="userSpaceOnUse"
       id="linearGradient29798"
       xlink:href="#linearGradient22094"
       inkscape:collect="always" /><linearGradient
       id="linearGradient22094"><stop
         id="stop22096"
         offset="0"
         style="stop-color:#000000;stop-opacity:1;" /><stop
         id="stop22098"
         offset="1"
         style="stop-color:#000000;stop-opacity:0;" /></linearGradient><linearGradient
       y2="482.6189"
       x2="265.58069"
       y1="306.17703"
       x1="705.01263"
       gradientTransform="translate(-208.2214,109.7383)"
       gradientUnits="userSpaceOnUse"
       id="linearGradient29800"
       xlink:href="#linearGradient22983"
       inkscape:collect="always" /><linearGradient
       id="linearGradient22983"
       inkscape:collect="always"><stop
         id="stop22985"
         offset="0"
         style="stop-color:#000000;stop-opacity:1;" /><stop
         id="stop22987"
         offset="1"
         style="stop-color:#000000;stop-opacity:0;" /></linearGradient><linearGradient
       y2="949.10645"
       x2="659.70892"
       y1="400.16699"
       x1="491.75668"
       gradientTransform="translate(-220.8835,106.9245)"
       gradientUnits="userSpaceOnUse"
       id="linearGradient29802"
       xlink:href="#linearGradient22094"
       inkscape:collect="always" /><linearGradient
       y2="560.5694"
       x2="379.71634"
       y1="560.5694"
       x1="253.14423"
       gradientUnits="userSpaceOnUse"
       id="linearGradient29804"
       xlink:href="#linearGradient24757"
       inkscape:collect="always" /><linearGradient
       id="linearGradient24757"><stop
         id="stop24759"
         offset="0"
         style="stop-color:#d5d5d5;stop-opacity:1;" /><stop
         id="stop24761"
         offset="1"
         style="stop-color:#848484;stop-opacity:0;" /></linearGradient><linearGradient
       y2="611.48108"
       x2="306.17722"
       y1="596.63184"
       x1="309.71277"
       gradientTransform="translate(-9.015606,192.1563)"
       gradientUnits="userSpaceOnUse"
       id="linearGradient29806"
       xlink:href="#linearGradient24757"
       inkscape:collect="always" /><linearGradient
       y2="654.74451"
       x2="191.44917"
       y1="654.74451"
       x1="177.95348"
       gradientTransform="translate(225.2135,-257.0333)"
       gradientUnits="userSpaceOnUse"
       id="linearGradient29808"
       xlink:href="#linearGradient24757"
       inkscape:collect="always" /><linearGradient
       inkscape:collect="always"
       xlink:href="#linearGradient4105"
       id="linearGradient4172"
       gradientUnits="userSpaceOnUse"
       x1="73.640739"
       y1="113.85787"
       x2="35.60788"
       y2="8.2969255"
       gradientTransform="translate(-84.0952,-4.477295)" /><linearGradient
       inkscape:collect="always"
       xlink:href="#linearGradient4130"
       id="linearGradient4169"
       gradientUnits="userSpaceOnUse"
       x1="9.574522"
       y1="30.543657"
       x2="71.071434"
       y2="96.615082"
       gradientTransform="translate(-84.0952,-4.477295)" /><radialGradient
       inkscape:collect="always"
       xlink:href="#linearGradient4118"
       id="radialGradient4164"
       gradientUnits="userSpaceOnUse"
       cx="57.106434"
       cy="45.286964"
       fx="57.106434"
       fy="45.286964"
       r="27.627054" /><linearGradient
       inkscape:collect="always"
       xlink:href="#linearGradient4130"
       id="linearGradient4162"
       gradientUnits="userSpaceOnUse"
       x1="9.574522"
       y1="30.543657"
       x2="71.071434"
       y2="96.615082" /><linearGradient
       inkscape:collect="always"
       xlink:href="#linearGradient4105"
       id="linearGradient4160"
       gradientUnits="userSpaceOnUse"
       x1="73.640739"
       y1="113.85787"
       x2="35.60788"
       y2="8.2969255" /><linearGradient
       inkscape:collect="always"
       xlink:href="#linearGradient4130"
       id="linearGradient4146"
       gradientUnits="userSpaceOnUse"
       x1="9.574522"
       y1="30.543657"
       x2="71.071434"
       y2="96.615082" /><linearGradient
       inkscape:collect="always"
       xlink:href="#linearGradient4105"
       id="linearGradient4144"
       gradientUnits="userSpaceOnUse"
       x1="73.640739"
       y1="113.85787"
       x2="35.60788"
       y2="8.2969255" /><linearGradient
       inkscape:collect="always"
       xlink:href="#linearGradient4130"
       id="linearGradient4136"
       x1="9.574522"
       y1="30.543657"
       x2="71.071434"
       y2="96.615082"
       gradientUnits="userSpaceOnUse" /><radialGradient
       inkscape:collect="always"
       xlink:href="#linearGradient4118"
       id="radialGradient4124"
       cx="57.106434"
       cy="45.286964"
       fx="57.106434"
       fy="45.286964"
       r="27.627054"
       gradientUnits="userSpaceOnUse" /><linearGradient
       inkscape:collect="always"
       xlink:href="#linearGradient4105"
       id="linearGradient4114"
       gradientUnits="userSpaceOnUse"
       x1="73.640739"
       y1="113.85787"
       x2="35.60788"
       y2="8.2969255" /><linearGradient
       inkscape:collect="always"
       xlink:href="#linearGradient4105"
       id="linearGradient4111"
       x1="16.062044"
       y1="85.06852"
       x2="100.61058"
       y2="85.06852"
       gradientUnits="userSpaceOnUse" /><linearGradient
       id="linearGradient4105"><stop
         style="stop-color:#25a2ff;stop-opacity:1.0000000;"
         offset="0.0000000"
         id="stop4107" /><stop
         style="stop-color:#00659a;stop-opacity:1.0000000;"
         offset="1.0000000"
         id="stop4109" /></linearGradient><linearGradient
       id="linearGradient4118"><stop
         style="stop-color:#ffd99b;stop-opacity:1;"
         offset="0"
         id="stop4120" /><stop
         style="stop-color:#b2986c;stop-opacity:1.0000000;"
         offset="1.0000000"
         id="stop4122" /></linearGradient><linearGradient
       inkscape:collect="always"
       id="linearGradient4130"><stop
         style="stop-color:#ffffff;stop-opacity:1;"
         offset="0"
         id="stop4132" /><stop
         style="stop-color:#ffffff;stop-opacity:0;"
         offset="1"
         id="stop4134" /></linearGradient><linearGradient
       inkscape:collect="always"
       xlink:href="#linearGradient22094"
       id="linearGradient2699"
       gradientUnits="userSpaceOnUse"
       gradientTransform="translate(-208.2214,109.7383)"
       x1="575.89093"
       y1="133.76495"
       x2="576.57422"
       y2="211.3031" /><linearGradient
       inkscape:collect="always"
       xlink:href="#linearGradient22983"
       id="linearGradient2701"
       gradientUnits="userSpaceOnUse"
       gradientTransform="translate(-208.2214,109.7383)"
       x1="705.01263"
       y1="306.17703"
       x2="265.58069"
       y2="482.6189" /><linearGradient
       inkscape:collect="always"
       xlink:href="#linearGradient22094"
       id="linearGradient2703"
       gradientUnits="userSpaceOnUse"
       gradientTransform="translate(-220.8835,106.9245)"
       x1="491.75668"
       y1="400.16699"
       x2="659.70892"
       y2="949.10645" /><linearGradient
       inkscape:collect="always"
       xlink:href="#linearGradient24757"
       id="linearGradient2705"
       gradientUnits="userSpaceOnUse"
       x1="253.14423"
       y1="560.5694"
       x2="379.71634"
       y2="560.5694" /><linearGradient
       inkscape:collect="always"
       xlink:href="#linearGradient24757"
       id="linearGradient2707"
       gradientUnits="userSpaceOnUse"
       gradientTransform="translate(-9.015606,192.1563)"
       x1="309.71277"
       y1="596.63184"
       x2="306.17722"
       y2="611.48108" /><linearGradient
       inkscape:collect="always"
       xlink:href="#linearGradient24757"
       id="linearGradient2709"
       gradientUnits="userSpaceOnUse"
       gradientTransform="translate(225.2135,-257.0333)"
       x1="177.95348"
       y1="654.74451"
       x2="191.44917"
       y2="654.74451" /><linearGradient
       inkscape:collect="always"
       xlink:href="#linearGradient5705"
       id="linearGradient5711"
       x1="513.19672"
       y1="47.867046"
       x2="428.06345"
       y2="0.13734059"
       gradientUnits="userSpaceOnUse"
       gradientTransform="translate(-5.58361,1.0284704)" /><clipPath
       id="clipPath5754"
       clipPathUnits="userSpaceOnUse"><path
         id="path5756"
         d="M 0,612 792,612 792,0 0,0 0,612 z" /></clipPath></defs><sodipodi:namedview
     pagecolor="#ffffff"
     bordercolor="#666666"
     borderopacity="1"
     objecttolerance="10"
     gridtolerance="10"
     guidetolerance="10"
     inkscape:pageopacity="0"
     inkscape:pageshadow="2"
     inkscape:window-width="1626"
     inkscape:window-height="1007"
     id="namedview3645"
     showgrid="false"
     inkscape:zoom="0.74281246"
     inkscape:cx="509.68637"
     inkscape:cy="403.64205"
     inkscape:window-x="32"
     inkscape:window-y="15"
     inkscape:window-maximized="0"
     inkscape:current-layer="g3655" /><g
     id="g3651"
     inkscape:groupmode="layer"
     inkscape:label="greenhouse-demo-board"
     transform="matrix(1.25,0,0,-1.25,0,1052.3625)"><g
       id="g3653"><g
         id="g3655"
         clip-path="url(#clipPath3657)"><g
           id="g3661"
           transform="translate(1070.1197,347.8633)"><path
             d="M 0,0 C -2.484,0 -4.5,-2.015 -4.5,-4.5 -4.5,-6.985 -2.484,-9 0,-9 2.485,-9 4.5,-6.985 4.5,-4.5 4.5,-2.015 2.485,0 0,0"
             style="fill:none;stroke:#e30613;stroke-width:0.28299999;stroke-linecap:round;stroke-linejoin:round;stroke-miterlimit:10;stroke-opacity:1;stroke-dasharray:none"
             id="path3663"
             inkscape:connector-curvature="0" /></g><g
           id="g3665"
           transform="translate(1026.9205,203.8633)"><path
             d="M 0,0 C -2.485,0 -4.5,-2.015 -4.5,-4.5 -4.5,-6.985 -2.485,-9 0,-9 2.485,-9 4.5,-6.985 4.5,-4.5 4.5,-2.015 2.485,0 0,0"
             style="fill:none;stroke:#e30613;stroke-width:0.28299999;stroke-linecap:round;stroke-linejoin:round;stroke-miterlimit:10;stroke-opacity:1;stroke-dasharray:none"
             id="path3667"
             inkscape:connector-curvature="0" /></g><g
           id="g3669"
           transform="translate(947.7203,203.8633)"><path
             d="M 0,0 C -2.485,0 -4.5,-2.015 -4.5,-4.5 -4.5,-6.985 -2.485,-9 0,-9 2.485,-9 4.5,-6.985 4.5,-4.5 4.5,-2.015 2.485,0 0,0"
             style="fill:none;stroke:#e30613;stroke-width:0.28299999;stroke-linecap:round;stroke-linejoin:round;stroke-miterlimit:10;stroke-opacity:1;stroke-dasharray:none"
             id="path3671"
             inkscape:connector-curvature="0" /></g><g
           id="g3673"
           transform="translate(933.3199,351.4629)"><path
             d="M 0,0 C -2.485,0 -4.5,-2.015 -4.5,-4.5 -4.5,-6.985 -2.485,-9 0,-9 2.485,-9 4.5,-6.985 4.5,-4.5 4.5,-2.015 2.485,0 0,0"
             style="fill:none;stroke:#e30613;stroke-width:0.28299999;stroke-linecap:round;stroke-linejoin:round;stroke-miterlimit:10;stroke-opacity:1;stroke-dasharray:none"
             id="path3675"
             inkscape:connector-curvature="0" /></g><g
           id="g3677"
           transform="translate(915.8375,639.9912)"
           style="fill:none;stroke:#0000ff;stroke-opacity:1"><path
             d="m 0,0 2.828,-2.828 c 0.777,-0.779 0.777,-2.047 0,-2.826 -0.781,-0.782 -2.051,-0.782 -2.828,0 l -2.828,2.826 c -0.781,0.781 -0.781,2.049 0,2.828 0.777,0.781 2.045,0.781 2.828,0 m -14.143,-4.686 c 1.106,0 2,-0.894 2,-1.998 l 0,-4 c 0,-1.105 -0.894,-2 -2,-2 -1.105,0 -2,0.895 -2,2 l 0,4 c 0,1.104 0.895,1.998 2,1.998 M -28.283,0 c 0.781,0.781 2.047,0.781 2.828,0 0.781,-0.779 0.781,-2.047 0,-2.828 l -2.828,-2.826 c -0.781,-0.782 -2.047,-0.782 -2.828,0 -0.782,0.779 -0.782,2.047 0,2.826 L -28.283,0 z m -1.858,11.313 c 0,-1.104 -0.896,-1.999 -2,-1.999 l -4,0 c -1.105,0 -2,0.895 -2,1.999 0,1.104 0.897,2 2,2 l 4,0 c 1.104,0 2,-0.896 2,-2 m 1.858,11.312 -2.828,2.828 c -0.782,0.781 -0.782,2.047 0,2.828 0.781,0.781 2.047,0.781 2.828,0 l 2.828,-2.828 c 0.781,-0.781 0.781,-2.047 0,-2.828 -0.781,-0.781 -2.047,-0.781 -2.828,0 m 14.14,4.686 c -1.105,0 -2,0.896 -2,2 l 0,4 c 0,1.103 0.895,2 2,2 1.106,0 2,-0.897 2,-2 l 0,-4 c 0,-1.104 -0.896,-2 -2,-2 m 0,-7.999 c -4.418,0 -8,-3.582 -8,-7.999 0,-4.417 3.584,-7.999 8,-7.999 4.418,0 7.998,3.582 7.998,7.999 0,4.417 -3.58,7.999 -7.998,7.999 m 0,-19.998 c -6.627,0 -12,5.373 -12,11.999 0,6.626 5.373,11.999 12,11.999 6.627,0 11.998,-5.373 11.998,-11.999 0,-6.626 -5.371,-11.999 -11.998,-11.999 M 0,22.625 c -0.781,-0.781 -2.051,-0.781 -2.828,0 -0.781,0.781 -0.781,2.047 0,2.828 L 0,28.281 c 0.777,0.781 2.047,0.781 2.828,0 0.777,-0.781 0.777,-2.047 0,-2.828 L 0,22.625 z m 7.854,-13.311 -3.999,0 c -1.103,0 -2,0.895 -2,1.999 0,1.104 0.897,2 2,2 l 3.999,0 c 1.105,0 2,-0.896 2,-2 0,-1.104 -0.893,-1.999 -2,-1.999"
             style="fill:none;fill-opacity:1;fill-rule:nonzero;stroke:#0000ff;stroke-opacity:1"
             id="path3679"
             inkscape:connector-curvature="0" /></g><g
           id="g3681"
           transform="translate(972.3824,635.8994)"
           style="fill:none;stroke:#0000ff;stroke-opacity:1"><path
             d="m 0,0 c -2.164,0 -3.92,1.756 -3.92,3.92 0,1.704 1.096,3.138 2.613,3.679 l 0,13.382 2.612,0 0,-13.382 C 2.824,7.058 3.918,5.624 3.918,3.92 3.918,1.756 2.162,0 0,0 m 2.611,8.42 0,5.605 0,13.405 0,5.224 c 0,1.442 -1.17,2.613 -2.611,2.613 -1.443,0 -2.613,-1.171 -2.613,-2.613 l 0,-5.224 0,-13.405 0,-5.605 C -4.17,7.514 -5.227,5.848 -5.227,3.92 c 0,-2.887 2.34,-5.226 5.227,-5.226 2.885,0 5.225,2.339 5.225,5.226 0,1.928 -1.059,3.594 -2.614,4.5 M 0,-6.531 c -5.771,0 -10.451,4.679 -10.451,10.451 0,2.645 0.992,5.054 2.613,6.896 l 0,21.838 c 0,4.327 3.508,7.838 7.838,7.838 4.326,0 7.834,-3.511 7.834,-7.838 l 0,-21.838 C 9.457,8.974 10.447,6.565 10.447,3.92 10.447,-1.852 5.771,-6.531 0,-6.531"
             style="fill:none;fill-opacity:1;fill-rule:nonzero;stroke:#0000ff;stroke-opacity:1"
             id="path3683"
             inkscape:connector-curvature="0" /></g><g
           id="g3685"
           transform="translate(1049.4723,634.3447)"
           style="fill:none;stroke:#0000ff;stroke-opacity:1"><path
             d="M 0,0 C 0,0 5.316,7.445 0.975,16.465 2.531,13.809 8.303,5.573 0,0 M -6.406,40.957 C -8.301,25.83 -19.391,15.186 -19.391,8.014 c 0,-7.177 5.815,-12.991 12.985,-12.991 7.172,0 12.986,5.814 12.986,12.991 0,7.172 -11.09,17.816 -12.986,32.943"
             style="fill:none;fill-opacity:1;fill-rule:nonzero;stroke:#0000ff;stroke-opacity:1"
             id="path3687"
             inkscape:connector-curvature="0" /></g><g
           id="g3689"
           transform="translate(1061.4322,427.1904)"><path
             d="m 0,0 c 0,-1.565 -1.269,-2.834 -2.835,-2.834 l -45.353,0 c -1.567,0 -2.835,1.269 -2.835,2.834 l 0,22.677 c 0,1.566 1.268,2.835 2.835,2.835 l 45.353,0 C -1.269,25.512 0,24.243 0,22.677 L 0,0 z"
             style="fill:none;stroke:#e30613;stroke-width:0.28299999;stroke-linecap:butt;stroke-linejoin:miter;stroke-miterlimit:10;stroke-opacity:1;stroke-dasharray:none"
             id="path3691"
             inkscape:connector-curvature="0" /></g><path
           d="m 1099.901,631.796 27.703,0 0,42.167 -27.703,0 0,-42.167 z m 28.157,-3.283 -28.611,0 c -1.562,0 -2.829,1.268 -2.829,2.829 l 0,43.075 c 0,1.561 1.267,2.83 2.829,2.83 l 28.611,0 c 1.562,0 2.831,-1.269 2.831,-2.83 l 0,-43.075 c 0,-1.561 -1.269,-2.829 -2.831,-2.829"
           style="fill:none;fill-opacity:1;fill-rule:nonzero;stroke:#0000ff;stroke-opacity:1"
           id="path3693"
           inkscape:connector-curvature="0" /><g
           id="g3695"
           transform="translate(1112.2008,644.3481)"
           style="fill:none;stroke:#0000ff;stroke-opacity:1"><path
             d="M 0,0 C -0.162,0 -0.25,0.126 -0.194,0.28 L 0.36,1.804 c 0.057,0.155 0.238,0.281 0.4,0.281 l 6.854,0 c 0.162,0 0.243,-0.124 0.178,-0.274 L 7.132,0.273 C 7.068,0.124 6.883,0 6.719,0 L 0,0 z m 4.276,16.371 c 0.164,0 0.717,-0.777 0.903,-1.824 0.297,-1.672 0.254,-4.775 0.254,-4.781 0,-0.006 -0.134,-0.01 -0.299,-0.01 l -6.631,0 c -0.166,0 -0.299,0.133 -0.299,0.297 l 0,6.021 c 0,0.164 0.133,0.298 0.299,0.298 l 5.773,0 0,-0.001 z M 0.445,4.073 c -0.162,0 -0.347,0.124 -0.411,0.276 l -1.302,3.142 c -0.059,0.151 0.022,0.274 0.184,0.274 l 6.11,0 c 0.163,0 0.359,-0.118 0.435,-0.263 L 7.123,4.336 C 7.198,4.191 7.128,4.073 6.964,4.073 l -6.519,0 z m 7.17,3.665 C 7.543,7.884 7.483,8.136 7.483,8.299 l 0,10.266 c 0,0.163 -0.134,0.297 -0.298,0.297 l -11.174,0 c -0.164,0 -0.298,-0.133 -0.298,-0.297 l 0,-15.286 c 0,-0.162 0.058,-0.417 0.13,-0.563 l 2.04,-4.202 c 0.072,-0.146 0.131,-0.258 0.133,-0.25 0.003,0.01 0.015,-0.004 0.03,-0.031 0.014,-0.027 0.156,-0.05 0.321,-0.05 l 9.753,0 c 0.165,0 0.351,0.123 0.414,0.274 l 1.617,3.808 c 0.064,0.151 0.057,0.393 -0.017,0.537 L 7.615,7.738 z"
             style="fill:none;fill-opacity:1;fill-rule:nonzero;stroke:#0000ff;stroke-opacity:1"
             id="path3697"
             inkscape:connector-curvature="0" /></g><g
           id="g3827"
           transform="translate(353.2029,517.10831)"
           style="fill:none;stroke:#0000ff;stroke-opacity:1"><path
             d="m 0,0 c 0,-1.424 -0.702,-2.135 -2.108,-2.135 -1.407,0 -2.228,0.063 -2.461,0.19 -0.776,0.269 -1.163,0.918 -1.163,1.945 l 0,15.982 c 0,2.057 -2.425,3.084 -7.275,3.084 l -0.758,0 -0.351,0 c -0.198,0 -0.307,-0.009 -0.324,-0.027 -2.327,-0.09 -3.868,-0.252 -4.625,-0.486 -1.694,-0.506 -2.541,-1.606 -2.541,-3.299 l 0,-15.254 c 0,-1.027 -0.389,-1.676 -1.164,-1.945 -0.234,-0.127 -1.054,-0.19 -2.46,-0.19 -1.425,0 -2.136,0.711 -2.136,2.135 l 0,15.307 c 0,1.533 -0.551,2.57 -1.651,3.111 -0.756,0.377 -1.992,0.566 -3.705,0.566 l -0.703,0 -0.459,0 -0.244,0 c -0.144,0 -0.226,0.01 -0.243,0.028 -0.36,0.017 -0.676,0.031 -0.946,0.041 -0.271,0.008 -0.496,0.013 -0.676,0.013 -4.904,0 -7.356,-1.046 -7.356,-3.136 l 0,-15.93 c 0,-1.027 -0.379,-1.676 -1.136,-1.945 -0.235,-0.127 -1.055,-0.19 -2.461,-0.19 -1.407,0 -2.11,0.711 -2.11,2.135 l 0,15.334 c 0,5.643 4.147,8.465 12.44,8.465 1.64,0 2.979,-0.014 4.016,-0.041 1.037,-0.028 1.808,-0.076 2.312,-0.149 2.146,-0.271 4.129,-0.947 5.95,-2.027 1.622,1.008 3.624,1.666 6.003,1.973 1.262,0.162 3.381,0.244 6.356,0.244 C -3.993,23.799 0,20.977 0,15.334 L 0,0 z"
             style="fill:none;stroke:#0000ff;stroke-opacity:1"
             id="path3829"
             inkscape:connector-curvature="0" /></g><g
           id="g3831"
           transform="translate(363.4256,517.10831)"
           style="fill:none;stroke:#0000ff;stroke-opacity:1"><path
             d="m 0,0 c 0,-1.424 -0.713,-2.135 -2.137,-2.135 -1.388,0 -2.199,0.063 -2.433,0.19 -0.741,0.269 -1.11,0.918 -1.11,1.945 l 0,21.77 c 0,1.406 0.713,2.109 2.137,2.109 1.37,0 2.173,-0.063 2.407,-0.19 C -0.379,23.42 0,22.779 0,21.77 L 0,0 z m 0.784,27.342 c 0,-0.938 -0.396,-1.678 -1.19,-2.219 -0.686,-0.469 -1.524,-0.703 -2.514,-0.703 -0.992,0 -1.83,0.234 -2.516,0.703 -0.793,0.541 -1.189,1.281 -1.189,2.219 0,0.937 0.396,1.676 1.189,2.217 0.686,0.468 1.524,0.703 2.516,0.703 0.99,0 1.828,-0.235 2.514,-0.703 0.794,-0.541 1.19,-1.28 1.19,-2.217"
             style="fill:none;stroke:#0000ff;stroke-opacity:1"
             id="path3833"
             inkscape:connector-curvature="0" /></g><g
           id="g3835"
           transform="translate(404.2869,517.10831)"
           style="fill:none;stroke:#0000ff;stroke-opacity:1"><path
             d="m 0,0 c 0,-1.027 -0.379,-1.676 -1.136,-1.945 -0.234,-0.127 -1.054,-0.19 -2.461,-0.19 -1.406,0 -2.109,0.711 -2.109,2.135 l 0,15.279 c 0,1.606 -0.956,2.66 -2.866,3.164 -1.262,0.254 -2.858,0.379 -4.787,0.379 l -16.766,0 0,-18.822 c 0,-1.424 -0.703,-2.135 -2.109,-2.135 -1.407,0 -2.227,0.063 -2.461,0.19 -0.758,0.269 -1.137,0.918 -1.137,1.945 l 0,28.693 c 0,1.045 0.379,1.696 1.137,1.948 0.287,0.107 1.108,0.162 2.461,0.162 1.406,0 2.109,-0.703 2.109,-2.11 l 0,-5.111 15.414,0 c 4.561,0 7.762,-0.361 9.6,-1.082 C -1.703,21.273 0,18.895 0,15.361 L 0,0 z"
             style="fill:none;stroke:#0000ff;stroke-opacity:1"
             id="path3837"
             inkscape:connector-curvature="0" /></g><g
           id="g3839"
           transform="translate(413.9959,517.10831)"
           style="fill:none;stroke:#0000ff;stroke-opacity:1"><path
             d="m 0,0 c 0,-1.424 -0.713,-2.135 -2.137,-2.135 -1.388,0 -2.199,0.063 -2.433,0.19 -0.741,0.269 -1.11,0.918 -1.11,1.945 l 0,21.77 c 0,1.406 0.712,2.109 2.137,2.109 1.369,0 2.172,-0.063 2.406,-0.19 C -0.379,23.42 0,22.779 0,21.77 L 0,0 z m 0.783,27.342 c 0,-0.938 -0.396,-1.678 -1.189,-2.219 -0.686,-0.469 -1.524,-0.703 -2.516,-0.703 -0.991,0 -1.83,0.234 -2.514,0.703 -0.793,0.541 -1.19,1.281 -1.19,2.219 0,0.937 0.397,1.676 1.19,2.217 0.684,0.468 1.523,0.703 2.514,0.703 0.992,0 1.83,-0.235 2.516,-0.703 0.793,-0.541 1.189,-1.28 1.189,-2.217"
             style="fill:none;stroke:#0000ff;stroke-opacity:1"
             id="path3841"
             inkscape:connector-curvature="0" /></g><g
           id="g3843"
           transform="translate(453.8026,517.10831)"
           style="fill:none;stroke:#0000ff;stroke-opacity:1"><path
             d="m 0,0 c 0,-1.424 -0.713,-2.135 -2.137,-2.135 -1.406,0 -2.226,0.063 -2.461,0.19 C -5.373,-1.676 -5.76,-1.027 -5.76,0 l 0,16.496 c 0,1.172 -0.974,1.94 -2.921,2.299 -0.342,0.072 -0.87,0.123 -1.582,0.15 -0.712,0.026 -1.609,0.039 -2.69,0.039 l -9.844,0 c -0.992,0 -1.826,-0.017 -2.502,-0.052 -0.676,-0.037 -1.213,-0.092 -1.609,-0.162 -1.838,-0.362 -2.758,-1.127 -2.758,-2.299 l 0,-16.471 c 0,-1.424 -0.703,-2.135 -2.109,-2.135 -1.407,0 -2.227,0.063 -2.461,0.19 -0.758,0.269 -1.136,0.918 -1.136,1.945 l 0,16.416 c 0,4.922 4.362,7.383 13.089,7.383 l 9.33,0 C -4.318,23.799 0,21.355 0,16.471 L 0,0 z"
             style="fill:none;stroke:#0000ff;stroke-opacity:1"
             id="path3845"
             inkscape:connector-curvature="0" /></g><g
           id="g3847"
           transform="translate(464.1053,517.10831)"
           style="fill:none;stroke:#0000ff;stroke-opacity:1"><path
             d="m 0,0 c 0,-1.424 -0.712,-2.135 -2.136,-2.135 -1.388,0 -2.2,0.063 -2.434,0.19 -0.739,0.269 -1.109,0.918 -1.109,1.945 l 0,21.77 c 0,1.406 0.712,2.109 2.137,2.109 1.37,0 2.172,-0.063 2.407,-0.19 C -0.379,23.42 0,22.779 0,21.77 L 0,0 z m 0.785,27.342 c 0,-0.938 -0.397,-1.678 -1.19,-2.219 -0.685,-0.469 -1.524,-0.703 -2.515,-0.703 -0.992,0 -1.83,0.234 -2.516,0.703 -0.793,0.541 -1.189,1.281 -1.189,2.219 0,0.937 0.396,1.676 1.189,2.217 0.686,0.468 1.524,0.703 2.516,0.703 0.991,0 1.83,-0.235 2.515,-0.703 0.793,-0.541 1.19,-1.28 1.19,-2.217"
             style="fill:none;stroke:#0000ff;stroke-opacity:1"
             id="path3849"
             inkscape:connector-curvature="0" /></g><g
           id="g3999"
           transform="translate(489.25799,621.52385)"
           style="fill:none;stroke:#0000ff;stroke-opacity:1"><path
             d="m 0,0 c 1.2,0.288 2.482,0.276 3.695,0.059 0.759,-0.126 1.056,-0.907 1.15,-1.58 l 0,-0.829 C 4.741,-2.951 4.558,-3.637 3.946,-3.912 2.941,-4.381 1.787,-4.311 0.71,-4.24 -0.012,-4.173 -0.92,-3.924 -1.094,-3.107 -1.346,-2.021 -1.305,-0.368 0,0"
             style="fill:none;stroke:#0000ff;stroke-opacity:1"
             id="path4001"
             inkscape:connector-curvature="0" /></g><g
           id="g4003"
           transform="translate(303.29509,621.25825)"
           style="fill:none;stroke:#0000ff;stroke-opacity:1"><path
             d="m 0,0 c 1.739,0.155 3.495,0.136 5.239,0.025 0.036,-7.075 0.005,-14.152 0.014,-21.228 -0.004,-0.42 0.126,-0.826 0.24,-1.23 0.545,0.251 1.079,0.544 1.511,0.964 4.348,4.03 8.705,8.045 13.055,12.072 1.017,0.954 2.205,1.785 3.582,2.096 1.435,0.376 2.925,0.256 4.388,0.278 0.392,-0.045 0.998,0.142 1.068,-0.418 -0.507,-0.664 -1.188,-1.164 -1.797,-1.729 -2.871,-2.595 -5.751,-5.179 -8.623,-7.77 -0.417,-0.414 -0.888,-0.822 -1.099,-1.386 -0.065,-0.52 0.397,-0.903 0.703,-1.264 3.614,-3.41 7.388,-6.656 10.939,-10.132 -0.292,-0.198 -0.589,-0.432 -0.968,-0.377 -2.58,0.019 -5.495,-0.288 -7.643,1.454 -1.963,1.66 -3.781,3.486 -5.675,5.224 -0.551,0.462 -1.022,1.239 -1.824,1.213 C 12.472,-22.37 11.958,-22.81 11.47,-23.23 9.533,-24.998 7.642,-26.814 5.688,-28.562 4.174,-29.949 1.971,-30.321 0,-29.979 L 0,0 z"
             style="fill:none;stroke:#0000ff;stroke-opacity:1"
             id="path4005"
             inkscape:connector-curvature="0" /></g><g
           id="g4007"
           transform="translate(449.42259,620.58055)"
           style="fill:none;stroke:#0000ff;stroke-opacity:1"><path
             d="m 0,0 c -0.02,0.297 0.021,0.792 0.449,0.743 1.594,0.036 3.2,0.098 4.79,-0.051 0.205,-7.387 -0.051,-14.793 0.128,-22.179 0.492,-0.346 1.007,0.176 1.384,0.465 4.069,3.747 8.127,7.507 12.192,11.262 1.171,1.076 2.314,2.275 3.835,2.854 1.891,0.766 3.969,0.536 5.959,0.536 0.382,0.017 0.432,-0.571 0.099,-0.734 -3.456,-3.149 -6.954,-6.253 -10.408,-9.402 -0.41,-0.455 -1.202,-1.106 -0.685,-1.755 0.972,-1.185 2.193,-2.138 3.302,-3.195 2.606,-2.391 5.221,-4.774 7.82,-7.175 0.454,-0.267 0.099,-0.887 -0.358,-0.783 -1.695,0.01 -3.407,-0.104 -5.083,0.193 -1.317,0.223 -2.515,0.906 -3.481,1.81 -2.017,1.865 -4.014,3.753 -6.031,5.615 -0.666,0.609 -1.519,0.02 -2.068,-0.446 -2.13,-1.877 -4.152,-3.88 -6.282,-5.759 -1.422,-1.248 -3.413,-1.546 -5.239,-1.377 -0.418,0.049 -0.287,0.573 -0.327,0.854 0.006,9.508 0,19.015 0.004,28.524"
             style="fill:none;stroke:#0000ff;stroke-opacity:1"
             id="path4009"
             inkscape:connector-curvature="0" /></g><g
           id="g4011"
           transform="translate(380.73659,614.08535)"
           style="fill:none;stroke:#0000ff;stroke-opacity:1"><path
             d="m 0,0 c 5.208,0.359 10.443,0.677 15.653,0.242 2.039,-0.23 4.309,-0.542 5.797,-2.107 1.449,-1.591 1.652,-3.855 1.758,-5.906 0.02,-4.751 -10e-4,-9.503 0.013,-14.256 0.002,-0.293 -0.017,-0.805 -0.432,-0.795 -1.363,-0.061 -2.742,-0.104 -4.1,0.026 -0.502,0.025 -0.676,0.585 -0.664,1.003 -0.019,3.707 0.017,7.414 -0.014,11.122 -0.097,1.65 -0.049,3.438 -0.942,4.897 -0.821,1.267 -2.456,1.494 -3.828,1.695 C 9.434,-3.695 5.599,-4.021 1.795,-4.292 1.072,-4.284 0.664,-4.949 0.7,-5.615 0.684,-11.081 0.706,-16.547 0.69,-22.013 c 0.047,-0.388 -0.153,-0.836 -0.606,-0.827 -1.533,-0.031 -3.077,-0.086 -4.608,0.059 -0.075,7.437 -0.036,14.879 -0.019,22.315 C -3.048,-0.149 -1.515,-0.152 0,0"
             style="fill:none;stroke:#0000ff;stroke-opacity:1"
             id="path4013"
             inkscape:connector-curvature="0" /></g><g
           id="g4015"
           transform="translate(488.84689,614.20355)"
           style="fill:none;stroke:#0000ff;stroke-opacity:1"><path
             d="M 0,0 C 1.425,0.053 2.855,0.031 4.283,0.01 4.621,0.044 4.749,-0.343 4.71,-0.618 4.72,-7.797 4.708,-14.973 4.715,-22.15 c -0.025,-0.283 0.051,-0.877 -0.413,-0.81 -1.527,-0.033 -3.06,-0.058 -4.584,0.016 -0.046,0.084 -0.135,0.248 -0.181,0.331 -0.039,7.327 -0.011,14.657 -0.015,21.986 C -0.551,-0.295 -0.354,0.003 0,0"
             style="fill:none;stroke:#0000ff;stroke-opacity:1"
             id="path4017"
             inkscape:connector-curvature="0" /></g><g
           id="g4019"
           transform="translate(435.32399,605.60495)"
           style="fill:none;stroke:#0000ff;stroke-opacity:1"><path
             d="m 0,0 c -0.123,-0.727 -1.043,-0.64 -1.601,-0.678 -4.837,0.005 -9.673,0.002 -14.511,0.002 -0.401,0.007 -0.809,0.033 -1.181,0.194 -0.295,0.244 -0.169,0.661 -0.155,0.985 0.162,1.176 0.616,2.382 1.531,3.179 1.032,0.783 2.356,1 3.604,1.193 2.829,0.311 5.703,0.33 8.526,-0.049 C -2.657,4.636 -1.309,4.382 -0.7,3.285 -0.111,2.31 0.116,1.129 0,0 M 5.245,-1.695 C 5.122,0.853 4.862,3.556 3.42,5.739 2.529,7.133 0.907,7.764 -0.621,8.181 -3.376,8.894 -6.25,8.959 -9.082,8.923 c -2.61,-0.087 -5.264,-0.266 -7.757,-1.107 -1.475,-0.49 -2.857,-1.352 -3.813,-2.594 -1.735,-2.227 -2.162,-5.142 -2.257,-7.883 -0.009,-2.456 0.11,-5.02 1.172,-7.28 0.824,-1.831 2.509,-3.196 4.432,-3.731 3.756,-1.131 7.729,-0.94 11.605,-0.95 2.258,0.095 4.544,0.165 6.749,0.708 1.881,0.435 3.101,2.282 3.451,4.084 -1.067,0.141 -2.119,-0.217 -3.181,-0.263 -4.504,-0.391 -9.045,-0.511 -13.55,-0.092 -1.497,0.223 -3.224,0.346 -4.313,1.532 -0.874,1.038 -1.123,2.5 -0.981,3.816 0.282,0.484 0.944,0.41 1.425,0.473 6.69,0.014 13.383,-0.002 20.074,0.008 0.425,-0.01 0.944,0.088 1.13,0.526 0.261,0.682 0.169,1.425 0.141,2.135"
             style="fill:none;stroke:#0000ff;stroke-opacity:1"
             id="path4021"
             inkscape:connector-curvature="0" /></g><g
           id="g4023"
           transform="translate(362.49389,602.22215)"
           style="fill:none;stroke:#0000ff;stroke-opacity:1"><path
             d="m 0,0 c -0.089,-1.972 -0.493,-4.131 -1.973,-5.557 -1.186,-1.032 -2.814,-1.291 -4.321,-1.494 -2.577,-0.27 -5.193,-0.304 -7.76,0.068 -1.484,0.232 -3.087,0.681 -4.049,1.922 -1.004,1.286 -1.151,2.993 -1.236,4.563 -0.048,2.181 0.08,4.539 1.355,6.395 1.028,1.466 2.927,1.841 4.582,2.111 2.675,0.342 5.396,0.317 8.067,-0.033 C -3.903,7.735 -2.29,7.402 -1.369,6.163 -0.046,4.418 0.039,2.101 0,0 m 3.985,7.219 c -0.606,1.483 -1.613,2.872 -3.077,3.601 -2.451,1.242 -5.26,1.434 -7.958,1.591 -2.596,0.037 -5.21,0.097 -7.787,-0.308 -2.794,-0.437 -5.886,-1.271 -7.577,-3.735 -1.99,-2.925 -2.215,-6.656 -1.983,-10.081 0.212,-2.64 0.862,-5.567 3.051,-7.292 2.488,-1.932 5.758,-2.113 8.758,-2.495 0.896,-0.031 1.779,0.188 2.678,0.129 1.125,-0.057 2.256,-0.206 3.376,0.004 2.826,0.293 5.861,0.642 8.176,2.444 2.215,1.89 3.036,4.892 3.314,7.686 0.227,2.836 0.099,5.787 -0.971,8.456"
             style="fill:none;stroke:#0000ff;stroke-opacity:1"
             id="path4025"
             inkscape:connector-curvature="0" /></g><g
           id="g4047"
           transform="matrix(0.79509317,0,0,0.79509317,-272.97246,407.51261)"
           style="fill:none;stroke:#0000ff;stroke-opacity:1"><path
             d="m 432.07367,163.69167 c -0.11442,0.25724 -0.12862,0.68152 -0.0259,0.94377 l 13.31048,35.02383 c 0.0994,0.26392 0.39087,0.57211 0.64894,0.6882 l 34.17946,15.3567 c 0.25557,0.11525 0.67984,0.12695 0.94293,0.0284 l 22.75317,-8.65343 c 0.26309,-0.0986 0.29148,-0.0468 0.0635,0.11776 l -20.05133,14.47139 c -0.22967,0.16454 -0.64309,0.26309 -0.92038,0.21799 l -36.99071,-5.98249 c -0.27729,-0.0443 -0.63976,-0.26893 -0.80346,-0.49611 l -21.92132,-30.38433 c -0.1662,-0.22717 -0.26308,-0.64226 -0.22049,-0.91955 l 5.98082,-36.98653 c 0.0443,-0.27729 0.2681,-0.63976 0.49611,-0.80429 L 444.43705,135.549 c 0.22801,-0.16704 0.31988,-0.0919 0.20462,0.16621 l -12.56799,27.97647 z"
             style="fill:none;stroke:#0000ff;stroke-opacity:1"
             id="path4049"
             inkscape:connector-curvature="0" /></g><g
           id="g4051"
           transform="matrix(0.66405651,0,0,0.66405651,179.58353,505.54617)"
           style="fill:none;stroke:#0000ff;stroke-opacity:1"><path
             d="M 0,0 C -0.009,1.018 -0.266,1.806 -0.771,2.362 -1.274,2.919 -2.044,3.198 -3.076,3.198 -4.113,3.198 -4.941,2.892 -5.559,2.281 -6.173,1.667 -6.522,0.907 -6.605,0 L 0,0 z m 1.884,-1.486 -8.489,0 c 0,-0.708 0.108,-1.327 0.32,-1.852 0.213,-0.527 0.504,-0.959 0.877,-1.295 0.357,-0.33 0.781,-0.579 1.273,-0.743 0.493,-0.165 1.034,-0.249 1.628,-0.249 0.782,0 1.572,0.157 2.367,0.472 0.794,0.312 1.362,0.619 1.696,0.923 l 0.102,0 0,-2.117 c -0.652,-0.275 -1.318,-0.505 -2,-0.691 -0.682,-0.184 -1.396,-0.276 -2.146,-0.276 -1.913,0 -3.406,0.516 -4.478,1.55 -1.074,1.035 -1.61,2.507 -1.61,4.411 0,1.885 0.514,3.381 1.542,4.49 1.03,1.107 2.383,1.661 4.061,1.661 1.556,0 2.755,-0.454 3.597,-1.361 0.84,-0.911 1.26,-2.201 1.26,-3.871 l 0,-1.052 z"
             style="fill:none;stroke:#0000ff;stroke-opacity:1"
             id="path4053"
             inkscape:connector-curvature="0" /></g><g
           id="g4055"
           transform="matrix(0.66405651,0,0,0.66405651,188.44968,501.34648)"
           style="fill:none;stroke:#0000ff;stroke-opacity:1"><path
             d="m 0,0 c -0.647,-0.312 -1.261,-0.552 -1.844,-0.723 -0.58,-0.173 -1.197,-0.259 -1.851,-0.259 -0.832,0 -1.595,0.123 -2.292,0.369 -0.691,0.242 -1.287,0.613 -1.783,1.106 -0.501,0.495 -0.891,1.121 -1.168,1.88 -0.273,0.754 -0.412,1.64 -0.412,2.651 0,1.883 0.518,3.364 1.552,4.437 1.036,1.074 2.405,1.609 4.103,1.609 0.661,0 1.311,-0.092 1.946,-0.278 C -1.113,10.606 -0.53,10.38 0,10.109 l 0,-2.154 -0.104,0 c -0.59,0.46 -1.203,0.815 -1.832,1.063 -0.627,0.248 -1.243,0.37 -1.841,0.37 -1.102,0 -1.971,-0.37 -2.606,-1.109 -0.636,-0.737 -0.954,-1.825 -0.954,-3.255 0,-1.389 0.31,-2.457 0.932,-3.203 0.621,-0.747 1.499,-1.121 2.628,-1.121 0.391,0 0.789,0.053 1.195,0.156 0.405,0.102 0.77,0.237 1.095,0.402 0.282,0.144 0.547,0.298 0.795,0.458 0.248,0.163 0.445,0.302 0.588,0.42 L 0,2.136 0,0 z"
             style="fill:none;stroke:#0000ff;stroke-opacity:1"
             id="path4057"
             inkscape:connector-curvature="0" /></g><path
           d="m 191.40293,500.86656 -1.28892,0 0,10.66077 1.28892,0 0,-10.66077 z"
           style="fill:none;stroke:#0000ff;stroke-opacity:1"
           id="path4059"
           inkscape:connector-curvature="0" /><path
           d="m 195.25447,500.86656 -1.28961,0 0,7.65392 1.28961,0 0,-7.65392 z m 0.0804,8.93422 -1.45162,0 0,1.33542 1.45162,0 0,-1.33542 z"
           style="fill:none;stroke:#0000ff;stroke-opacity:1"
           id="path4061"
           inkscape:connector-curvature="0" /><g
           id="g4063"
           transform="matrix(0.66405651,0,0,0.66405651,203.20939,504.75176)"
           style="fill:none;stroke:#0000ff;stroke-opacity:1"><path
             d="m 0,0 c 0,1.389 -0.239,2.429 -0.714,3.115 -0.473,0.689 -1.204,1.031 -2.19,1.031 -0.554,0 -1.115,-0.122 -1.68,-0.362 -0.562,-0.24 -1.103,-0.555 -1.619,-0.949 l 0,-6.53 c 0.55,-0.248 1.021,-0.417 1.421,-0.505 0.393,-0.089 0.843,-0.134 1.344,-0.134 1.079,0 1.922,0.363 2.529,1.094 C -0.304,-2.513 0,-1.432 0,0 M 2,0.052 C 2,-0.887 1.865,-1.739 1.599,-2.513 1.328,-3.287 0.952,-3.943 0.462,-4.479 c -0.454,-0.509 -0.988,-0.903 -1.605,-1.18 -0.614,-0.28 -1.266,-0.418 -1.953,-0.418 -0.599,0 -1.14,0.064 -1.626,0.196 -0.484,0.128 -0.981,0.332 -1.481,0.608 l 0,-4.83 -1.941,0 0,15.778 1.941,0 0,-1.208 c 0.516,0.432 1.096,0.795 1.738,1.088 0.641,0.292 1.329,0.439 2.059,0.439 1.39,0 2.47,-0.526 3.246,-1.575 C 1.611,3.371 2,1.916 2,0.052"
             style="fill:none;stroke:#0000ff;stroke-opacity:1"
             id="path4065"
             inkscape:connector-curvature="0" /></g><g
           id="g4067"
           transform="matrix(0.66405651,0,0,0.66405651,212.01332,503.07216)"
           style="fill:none;stroke:#0000ff;stroke-opacity:1"><path
             d="m 0,0 c 0,-1.052 -0.435,-1.916 -1.304,-2.591 -0.873,-0.674 -2.06,-1.01 -3.568,-1.01 -0.851,0 -1.633,0.101 -2.347,0.305 -0.71,0.201 -1.309,0.424 -1.789,0.663 l 0,2.182 0.103,0 c 0.613,-0.465 1.293,-0.832 2.041,-1.102 0.752,-0.271 1.471,-0.407 2.16,-0.407 0.849,0 1.519,0.138 2.001,0.412 0.481,0.275 0.724,0.708 0.724,1.3 0,0.455 -0.131,0.799 -0.394,1.033 -0.261,0.234 -0.764,0.434 -1.506,0.599 -0.276,0.06 -0.636,0.133 -1.08,0.215 -0.443,0.083 -0.848,0.173 -1.209,0.266 -1.013,0.271 -1.731,0.664 -2.153,1.186 -0.425,0.518 -0.636,1.156 -0.636,1.912 0,0.474 0.098,0.923 0.293,1.342 0.199,0.42 0.494,0.795 0.893,1.124 0.386,0.322 0.877,0.579 1.471,0.769 0.597,0.19 1.26,0.283 1.997,0.283 0.687,0 1.385,-0.085 2.088,-0.252 0.705,-0.167 1.294,-0.372 1.759,-0.614 l 0,-2.074 -0.102,0 C -1.052,5.906 -1.655,6.212 -2.363,6.464 -3.07,6.716 -3.766,6.84 -4.447,6.84 -5.156,6.84 -5.756,6.707 -6.244,6.433 -6.729,6.163 -6.975,5.758 -6.975,5.223 -6.975,4.747 -6.826,4.39 -6.532,4.149 -6.244,3.908 -5.774,3.711 -5.128,3.562 -4.772,3.478 -4.37,3.396 -3.925,3.312 -3.48,3.229 -3.111,3.154 -2.818,3.084 -1.917,2.879 -1.22,2.523 -0.734,2.022 -0.244,1.512 0,0.839 0,0"
             style="fill:none;stroke:#0000ff;stroke-opacity:1"
             id="path4069"
             inkscape:connector-curvature="0" /></g><g
           id="g4071"
           transform="matrix(0.66405651,0,0,0.66405651,219.00863,505.54617)"
           style="fill:none;stroke:#0000ff;stroke-opacity:1"><path
             d="M 0,0 C -0.009,1.018 -0.265,1.806 -0.768,2.362 -1.274,2.919 -2.042,3.198 -3.076,3.198 -4.115,3.198 -4.943,2.892 -5.555,2.281 -6.172,1.667 -6.52,0.907 -6.603,0 L 0,0 z m 1.887,-1.486 -8.49,0 c 0,-0.708 0.106,-1.327 0.318,-1.852 0.215,-0.527 0.505,-0.959 0.879,-1.295 0.357,-0.33 0.783,-0.579 1.273,-0.743 0.491,-0.165 1.031,-0.249 1.624,-0.249 0.786,0 1.573,0.157 2.37,0.472 0.795,0.312 1.361,0.619 1.695,0.923 l 0.104,0 0,-2.117 c -0.653,-0.275 -1.319,-0.505 -1.999,-0.691 -0.682,-0.184 -1.398,-0.276 -2.148,-0.276 -1.91,0 -3.407,0.516 -4.479,1.55 -1.071,1.035 -1.608,2.507 -1.608,4.411 0,1.885 0.515,3.381 1.542,4.49 1.027,1.107 2.383,1.661 4.062,1.661 1.553,0 2.75,-0.454 3.593,-1.361 0.843,-0.911 1.264,-2.201 1.264,-3.871 l 0,-1.052 z"
             style="fill:none;stroke:#0000ff;stroke-opacity:1"
             id="path4073"
             inkscape:connector-curvature="0" /></g><path
           d="m 224.31823,500.86656 -1.63624,0 0,1.95366 1.63624,0 0,-1.95366 z"
           style="fill:none;stroke:#0000ff;stroke-opacity:1"
           id="path4075"
           inkscape:connector-curvature="0" /><g
           id="g4077"
           transform="matrix(0.66405651,0,0,0.66405651,232.51155,504.68948)"
           style="fill:none;stroke:#0000ff;stroke-opacity:1"><path
             d="M 0,0 C 0,1.492 -0.289,2.602 -0.873,3.328 -1.461,4.053 -2.268,4.416 -3.31,4.416 -4.36,4.416 -5.179,4.053 -5.759,3.328 -6.339,2.602 -6.632,1.492 -6.632,0 c 0,-1.443 0.293,-2.542 0.878,-3.286 0.586,-0.747 1.4,-1.121 2.444,-1.121 1.036,0 1.843,0.37 2.431,1.11 C -0.292,-2.558 0,-1.459 0,0 m 2.004,0 c 0,-1.877 -0.482,-3.361 -1.442,-4.447 -0.965,-1.087 -2.252,-1.63 -3.872,-1.63 -1.628,0 -2.922,0.543 -3.883,1.63 -0.962,1.086 -1.439,2.57 -1.439,4.447 0,1.878 0.477,3.362 1.439,4.453 0.961,1.09 2.255,1.635 3.883,1.635 1.62,0 2.907,-0.545 3.872,-1.635 C 1.522,3.362 2.004,1.878 2.004,0"
             style="fill:none;stroke:#0000ff;stroke-opacity:1"
             id="path4079"
             inkscape:connector-curvature="0" /></g><g
           id="g4081"
           transform="matrix(0.66405651,0,0,0.66405651,240.61251,507.11454)"
           style="fill:none;stroke:#0000ff;stroke-opacity:1"><path
             d="m 0,0 -0.104,0 c -0.289,0.07 -0.568,0.119 -0.839,0.15 -0.272,0.032 -0.594,0.048 -0.967,0.048 -0.597,0 -1.174,-0.134 -1.732,-0.399 -0.556,-0.265 -1.092,-0.606 -1.609,-1.027 l 0,-8.181 -1.939,0 0,11.526 1.939,0 0,-1.704 c 0.771,0.62 1.451,1.058 2.036,1.316 0.589,0.26 1.191,0.388 1.803,0.388 0.337,0 0.58,-0.009 0.732,-0.026 C -0.529,2.072 -0.302,2.042 0,1.991 L 0,0 z"
             style="fill:none;stroke:#0000ff;stroke-opacity:1"
             id="path4083"
             inkscape:connector-curvature="0" /></g><g
           id="g4085"
           transform="matrix(0.66405651,0,0,0.66405651,246.74594,502.96937)"
           style="fill:none;stroke:#0000ff;stroke-opacity:1"><path
             d="m 0,0 0,6.284 c -0.517,0.235 -0.995,0.401 -1.438,0.502 -0.446,0.098 -0.888,0.15 -1.328,0.15 -1.066,0 -1.906,-0.359 -2.519,-1.075 -0.611,-0.714 -0.916,-1.754 -0.916,-3.117 0,-1.293 0.225,-2.271 0.681,-2.939 0.453,-0.668 1.206,-1.003 2.259,-1.003 0.563,0 1.13,0.109 1.697,0.325 C -0.995,-0.654 -0.477,-0.364 0,0 m 1.939,-1.857 c 0,-1.953 -0.444,-3.387 -1.332,-4.303 -0.886,-0.916 -2.249,-1.373 -4.095,-1.373 -0.612,0 -1.207,0.043 -1.79,0.131 -0.58,0.085 -1.156,0.206 -1.72,0.365 l 0,1.98 0.102,0 c 0.319,-0.122 0.819,-0.273 1.51,-0.457 0.688,-0.181 1.374,-0.274 2.061,-0.274 0.662,0 1.213,0.078 1.645,0.237 0.433,0.159 0.768,0.379 1.01,0.661 0.237,0.268 0.411,0.592 0.514,0.97 C -0.05,-3.543 0,-3.119 0,-2.652 L 0,-1.6 c -0.586,-0.467 -1.144,-0.817 -1.676,-1.046 -0.535,-0.23 -1.214,-0.345 -2.04,-0.345 -1.376,0 -2.468,0.496 -3.275,1.49 -0.809,0.994 -1.213,2.395 -1.213,4.204 0,0.992 0.14,1.846 0.418,2.565 0.279,0.719 0.658,1.339 1.14,1.864 0.447,0.488 0.992,0.868 1.629,1.139 0.641,0.272 1.28,0.407 1.91,0.407 0.667,0 1.226,-0.066 1.676,-0.201 C -0.979,8.342 -0.502,8.137 0,7.862 l 0.122,0.497 1.817,0 0,-10.216 z"
             style="fill:none;stroke:#0000ff;stroke-opacity:1"
             id="path4087"
             inkscape:connector-curvature="0" /></g><g
           id="g4089"
           transform="matrix(0.66405651,0,0,0.66405651,151.51386,547.4083)"
           style="fill:none;stroke:#0000ff;stroke-opacity:1"><path
             d="M 0,0 C -1.277,1.806 -5.312,6.367 -7.647,7.752 -9.56,8.811 -12.101,9.77 -14.65,9.77 l -8.33,0 c -2.657,0 -5.198,-0.959 -7.005,-2.018 -0.85,-0.507 -1.937,-1.431 -3.039,-2.492 -1.084,1.061 -2.161,1.985 -3.01,2.492 -1.909,1.059 -4.455,2.018 -7.004,2.018 l -8.33,0 c -2.656,0 -5.198,-0.959 -7.003,-2.018 C -60.704,6.367 -64.845,1.806 -66.118,0 -67.5,-2.017 -67.921,-4.348 -67.921,-6.577 l 0,-42.155 12.942,0 0,42.049 c 1.278,1.592 3.083,3.5 3.932,4.032 l 7.689,0 c 0.851,-0.532 2.659,-2.23 3.822,-3.926 l 0,-42.155 12.945,0 0,42.049 c 1.279,1.592 3.084,3.5 3.928,4.032 l 7.69,0 c 0.853,-0.532 2.662,-2.23 3.828,-3.926 l 0,-42.155 12.942,0 0,42.155 C 1.797,-4.348 1.374,-2.017 0,0"
             style="fill:none;stroke:#0000ff;stroke-opacity:1"
             id="path4091"
             inkscape:connector-curvature="0" /></g><g
           id="g4093"
           transform="matrix(0.66405651,0,0,0.66405651,247.42168,547.37489)"
           style="fill:none;stroke:#0000ff;stroke-opacity:1"><path
             d="m 0,0 c -1.266,1.807 -5.304,6.366 -7.634,7.747 -1.912,1.059 -4.464,2.018 -7.003,2.018 l -8.332,0 c -2.659,0 -5.202,-0.959 -7.01,-2.018 -0.846,-0.502 -1.935,-1.431 -3.034,-2.486 -1.085,1.055 -2.162,1.984 -3.008,2.486 -1.914,1.059 -4.458,2.018 -7.002,2.018 l -8.333,0 c -2.655,0 -5.202,-0.959 -7.005,-2.018 -2.333,-1.381 -6.473,-5.94 -7.746,-7.747 -1.381,-2.018 -1.802,-4.348 -1.802,-6.577 l 0,-42.156 12.942,0 0,42.046 c 1.274,1.596 3.08,3.504 3.928,4.035 l 7.689,0 c 0.855,-0.531 2.659,-2.228 3.828,-3.925 l 0,-42.156 12.944,0 0,42.046 c 1.277,1.596 3.076,3.504 3.922,4.035 l 7.69,0 c 0.853,-0.531 2.661,-2.228 3.831,-3.925 l 0,-42.156 12.945,0 0,42.156 C 1.81,-4.348 1.384,-2.018 0,0"
             style="fill:none;stroke:#0000ff;stroke-opacity:1"
             id="path4095"
             inkscape:connector-curvature="0" /></g><g
           id="g4097"
           transform="matrix(0.66405651,0,0,0.66405651,161.47238,515.10334)"
           style="fill:none;stroke:#0000ff;stroke-opacity:1"><path
             d="m 0,0 0,15.883 c 0,4.779 2.685,9.329 8.274,11.571 L 35.97,38.17 c 0.529,0.109 1.175,0.853 1.175,1.807 l 0,2.728 c 0,0.844 -3.085,4.03 -4.783,4.879 0,0 -0.209,0.106 -0.631,0.106 l -15.704,0 c -0.535,0 -0.644,-0.106 -0.644,-0.106 -2.226,-1.38 -4.669,-4.879 -4.669,-4.879 L 0,45.777 c 0.74,1.596 1.275,2.55 2.119,3.721 2.763,3.609 7.43,8.809 13.48,8.809 l 16.663,0 c 2.331,0 4.883,-0.954 6.581,-1.916 2.225,-1.265 6.58,-5.729 7.851,-7.637 1.27,-1.913 1.591,-4.243 1.591,-6.049 l 0,-3.151 c 0,-4.884 -2.875,-9.363 -8.28,-11.569 L 12.415,17.368 c -0.528,-0.101 -1.273,-0.843 -1.273,-1.797 l 0,-4.957 37.143,0 L 48.285,0 0,0 z"
             style="fill:none;stroke:#0000ff;stroke-opacity:1"
             id="path4099"
             inkscape:connector-curvature="0" /></g><g
           id="g4101"
           transform="matrix(1,0,0,1.5611643,519.3437,466.68848)"><path
             d="m 0,0 c 0,-1.565 -1.269,-2.834 -2.835,-2.834 l -45.353,0 c -1.567,0 -2.835,1.269 -2.835,2.834 l 0,22.677 c 0,1.566 1.268,2.835 2.835,2.835 l 45.353,0 C -1.269,25.512 0,24.243 0,22.677 L 0,0 z"
             style="fill:none;stroke:#e30613;stroke-width:0.28299999;stroke-linecap:butt;stroke-linejoin:miter;stroke-miterlimit:10;stroke-opacity:1;stroke-dasharray:none"
             id="path4103"
             inkscape:connector-curvature="0" /></g><g
           id="g4105"
           transform="matrix(1,0,0,0.72747283,658.89074,512.78527)"><path
             d="m 0,0 c 0,-1.565 -1.27,-2.834 -2.834,-2.834 l -36.852,0 c -1.564,0 -2.834,1.269 -2.834,2.834 l 0,36.851 c 0,1.565 1.27,2.834 2.834,2.834 l 36.852,0 C -1.27,39.685 0,38.416 0,36.851 L 0,0 z"
             style="fill:none;stroke:#e30613;stroke-width:0.28299999;stroke-linecap:butt;stroke-linejoin:miter;stroke-miterlimit:10;stroke-opacity:1;stroke-dasharray:none"
             id="path4107"
             inkscape:connector-curvature="0" /></g><g
           id="g4109"
           transform="translate(631.3086,21.3408)"><path
             d="M 0,0 0,5.999"
             style="fill:none;stroke:#0000ff;stroke-opacity:1;stroke-width:0.028;stroke-linecap:butt;stroke-linejoin:miter;stroke-miterlimit:10;stroke-dasharray:none"
             id="path4111" /></g><g
           id="g4129"
           transform="translate(918.7008,693.4224)"><path
             d="m 0,0 c 0,-1.565 -1.269,-2.834 -2.835,-2.834 l -28.346,0 c -1.565,0 -2.835,1.269 -2.835,2.834 l 0,17.008 c 0,1.566 1.27,2.835 2.835,2.835 l 28.346,0 C -1.269,19.843 0,18.574 0,17.008 L 0,0 z"
             style="fill:none;stroke:#e30613;stroke-width:0.28299999;stroke-linecap:butt;stroke-linejoin:miter;stroke-miterlimit:10;stroke-opacity:1;stroke-dasharray:none"
             id="path4131"
             inkscape:connector-curvature="0" /></g><g
           id="g4133"
           transform="translate(984.0982,432.8594)"><path
             d="m 0,0 c 0,-1.565 -1.269,-2.834 -2.835,-2.834 l -28.346,0 c -1.565,0 -2.835,1.269 -2.835,2.834 l 0,17.008 c 0,1.566 1.27,2.835 2.835,2.835 l 28.346,0 C -1.269,19.843 0,18.574 0,17.008 L 0,0 z"
             style="fill:none;stroke:#e30613;stroke-width:0.28299999;stroke-linecap:butt;stroke-linejoin:miter;stroke-miterlimit:10;stroke-opacity:1;stroke-dasharray:none"
             id="path4135"
             inkscape:connector-curvature="0" /></g><g
           id="g4137"
           transform="translate(989.3873,693.4224)"><path
             d="m 0,0 c 0,-1.565 -1.269,-2.834 -2.835,-2.834 l -28.346,0 c -1.565,0 -2.835,1.269 -2.835,2.834 l 0,17.008 c 0,1.566 1.27,2.835 2.835,2.835 l 28.346,0 C -1.269,19.843 0,18.574 0,17.008 L 0,0 z"
             style="fill:none;stroke:#e30613;stroke-width:0.28299999;stroke-linecap:butt;stroke-linejoin:miter;stroke-miterlimit:10;stroke-opacity:1;stroke-dasharray:none"
             id="path4139"
             inkscape:connector-curvature="0" /></g><g
           id="g4141"
           transform="translate(1060.0748,693.4224)"><path
             d="m 0,0 c 0,-1.565 -1.269,-2.834 -2.835,-2.834 l -28.346,0 c -1.565,0 -2.835,1.269 -2.835,2.834 l 0,17.008 c 0,1.566 1.27,2.835 2.835,2.835 l 28.346,0 C -1.269,19.843 0,18.574 0,17.008 L 0,0 z"
             style="fill:none;stroke:#e30613;stroke-width:0.28299999;stroke-linecap:butt;stroke-linejoin:miter;stroke-miterlimit:10;stroke-opacity:1;stroke-dasharray:none"
             id="path4143"
             inkscape:connector-curvature="0" /></g><g
           id="g4145"
           transform="translate(1130.7613,693.4224)"><path
             d="m 0,0 c 0,-1.565 -1.269,-2.834 -2.835,-2.834 l -28.346,0 c -1.565,0 -2.835,1.269 -2.835,2.834 l 0,17.008 c 0,1.566 1.27,2.835 2.835,2.835 l 28.346,0 C -1.269,19.843 0,18.574 0,17.008 L 0,0 z"
             style="fill:none;stroke:#e30613;stroke-width:0.28299999;stroke-linecap:butt;stroke-linejoin:miter;stroke-miterlimit:10;stroke-opacity:1;stroke-dasharray:none"
             id="path4147"
             inkscape:connector-curvature="0" /></g><g
           id="g4153"
           transform="matrix(1.0413825,0,0,1,1161.3429,52.4414)"><path
             d="m 0,0 c 0,-15.655 -12.691,-28.347 -28.347,-28.347 l -1031.81,0 c -15.656,0 -28.347,12.692 -28.347,28.347 l 0,737.008 c 0,15.656 12.691,28.346 28.347,28.346 l 1031.81,0 C -12.691,765.354 0,752.664 0,737.008 L 0,0 z"
             style="fill:none;stroke:#e30613;stroke-width:0.28299999;stroke-linecap:butt;stroke-linejoin:miter;stroke-miterlimit:10;stroke-opacity:1;stroke-dasharray:none"
             id="path4155"
             inkscape:connector-curvature="0" /></g><text
           xml:space="preserve"
           style="font-size:33.22661591px;font-style:normal;font-weight:normal;line-height:125%;letter-spacing:0px;word-spacing:0px;fill:none;stroke:#0000ff;stroke-width:1.03833175;stroke-opacity:1;font-family:Sans"
           x="447.48581"
           y="-729.98828"
           id="text4187"
           sodipodi:linespacing="125%"
           transform="scale(0.9714655,-1.0293726)"><tspan
             sodipodi:role="line"
             x="447.48581"
             y="-729.98828"
             id="tspan4191"
             style="font-size:39.8719368px;font-style:normal;font-variant:normal;font-weight:normal;font-stretch:normal;text-align:start;line-height:125%;writing-mode:lr-tb;text-anchor:start;fill:none;stroke:#0000ff;stroke-width:1.03833175;stroke-opacity:1;font-family:Sans;-inkscape-font-specification:Sans">Developer Program</tspan><tspan
             sodipodi:role="line"
             x="447.48581"
             y="-700.01953"
             style="font-size:19.9359684px;font-style:normal;font-variant:normal;font-weight:normal;font-stretch:normal;text-align:start;line-height:125%;writing-mode:lr-tb;text-anchor:start;fill:none;stroke:#0000ff;stroke-width:1.03833175;stroke-opacity:1;font-family:Sans;-inkscape-font-specification:Sans"
             id="tspan4197">http://developer.sierrawireless.com</tspan></text>
<rect
           id="rect4193"
           width="1.422487"
           height="68.279373"
           x="410.24744"
           y="-783.79028"
           transform="scale(1,-1)"
           style="fill:none;stroke:#0000ff;stroke-opacity:1" /><text
           xml:space="preserve"
           style="font-size:32px;font-style:normal;font-weight:normal;line-height:125%;letter-spacing:0px;word-spacing:0px;fill:none;fill-opacity:1;stroke:#0000ff;font-family:Sans;stroke-opacity:1"
           x="628.51294"
           y="-99.837387"
           id="text4199"
           sodipodi:linespacing="125%"
           transform="scale(1,-1)"><tspan
             sodipodi:role="line"
             id="tspan4201"
             x="627.31293"
             y="-99.837387"
             style="font-size:38.40000152999999727px;font-style:normal;font-variant:normal;font-weight:normal;font-stretch:normal;text-align:center;line-height:125%;letter-spacing:-2.40000010000000019px;word-spacing:0px;writing-mode:lr-tb;text-anchor:middle;font-family:Sans;-inkscape-font-specification:Sans;fill:none;stroke:#0000ff;stroke-opacity:1"
             dx="0">Embedded Framework</tspan><tspan
             sodipodi:role="line"
             x="628.51294"
             y="-51.837387"
             style="font-size:38.40000152999999727px;font-style:normal;font-variant:normal;font-weight:bold;font-stretch:normal;text-align:center;line-height:125%;writing-mode:lr-tb;text-anchor:middle;font-family:Sans;-inkscape-font-specification:Sans Bold;fill:none;stroke:#0000ff;stroke-opacity:1"
             id="tspan4332">ALEOS<tspan
   style="font-weight:normal;-inkscape-font-specification:Sans;fill:none;stroke:#0000ff;stroke-opacity:1"
   id="tspan4385"></tspan> AF</tspan></text>
<text
           xml:space="preserve"
           style="font-size:32px;font-style:normal;font-weight:normal;line-height:125%;letter-spacing:0px;word-spacing:0px;fill:none;fill-opacity:1;stroke:#0000ff;font-family:Sans;stroke-opacity:1"
           x="870.39893"
           y="-291.76468"
           id="text4227"
           sodipodi:linespacing="125%"
           transform="scale(1,-1)"><tspan
             sodipodi:role="line"
             id="tspan4229"
             x="870.39893"
             y="-291.76468"
             style="font-size:16px;font-style:normal;font-variant:normal;font-weight:normal;font-stretch:normal;text-align:center;line-height:125%;writing-mode:lr-tb;text-anchor:middle;font-family:Sans;-inkscape-font-specification:Sans;stroke:#0000ff;stroke-opacity:1;fill:none">RS232</tspan><tspan
             sodipodi:role="line"
             x="870.39893"
             y="-271.76468"
             style="font-size:16px;font-style:normal;font-variant:normal;font-weight:normal;font-stretch:normal;text-align:center;line-height:125%;writing-mode:lr-tb;text-anchor:middle;font-family:Sans;-inkscape-font-specification:Sans;stroke:#0000ff;stroke-opacity:1;fill:none"
             id="tspan4231">Modbus</tspan></text>
<text
           transform="scale(1,-1)"
           sodipodi:linespacing="125%"
           id="text4267"
           y="-291.76468"
           x="391.20654"
           style="font-size:32px;font-style:normal;font-weight:normal;line-height:125%;letter-spacing:0px;word-spacing:0px;fill:none;fill-opacity:1;stroke:#0000ff;font-family:Sans;stroke-opacity:1"
           xml:space="preserve"><tspan
             style="font-size:17.60000038000000089px;font-style:normal;font-variant:normal;font-weight:normal;font-stretch:normal;text-align:center;line-height:125%;letter-spacing:-1.60000001999999997px;writing-mode:lr-tb;text-anchor:middle;font-family:Sans;-inkscape-font-specification:Sans;stroke:#0000ff;stroke-opacity:1;fill:none"
             y="-291.76468"
             x="390.40656"
             sodipodi:role="line"
             id="tspan4275">2G/3G Wireless</tspan><tspan
             style="font-size:17.60000038000000089px;font-style:normal;font-variant:normal;font-weight:normal;font-stretch:normal;text-align:center;line-height:125%;letter-spacing:-1.60000001999999997px;writing-mode:lr-tb;text-anchor:middle;font-family:Sans;-inkscape-font-specification:Sans;stroke:#0000ff;stroke-opacity:1;fill:none"
             y="-269.76468"
             x="390.40656"
             sodipodi:role="line"
             id="tspan4346"> Open</tspan><tspan
             style="font-size:17.60000038000000089px;font-style:normal;font-variant:normal;font-weight:normal;font-stretch:normal;text-align:center;line-height:125%;letter-spacing:-1.60000001999999997px;writing-mode:lr-tb;text-anchor:middle;font-family:Sans;-inkscape-font-specification:Sans;stroke:#0000ff;stroke-opacity:1;fill:none"
             y="-247.76468"
             x="390.40656"
             sodipodi:role="line"
             id="tspan4348">M2M Protocol</tspan></text>
<text
           xml:space="preserve"
           style="font-size:25.60000038px;font-style:normal;font-variant:normal;font-weight:normal;font-stretch:normal;text-align:start;line-height:125%;letter-spacing:0px;word-spacing:0px;writing-mode:lr-tb;text-anchor:start;fill:none;stroke:#0000ff;stroke-opacity:1;font-family:Sans;-inkscape-font-specification:Sans"
           x="226.95502"
           y="-297.25488"
           id="text4310"
           sodipodi:linespacing="125%"
           transform="scale(1,-1)"><tspan
             sodipodi:role="line"
             id="tspan4312"
             x="226.95502"
             y="-297.25488"
             style="font-size:25.60000038px;font-style:normal;font-variant:normal;font-weight:normal;font-stretch:normal;text-align:center;line-height:125%;writing-mode:lr-tb;text-anchor:middle;fill:none;stroke:#0000ff;stroke-opacity:1;font-family:Sans;-inkscape-font-specification:Sans">M2M</tspan><tspan
             sodipodi:role="line"
             x="226.95502"
             y="-265.25488"
             id="tspan4314"
             style="font-size:25.60000038px;font-style:normal;font-variant:normal;font-weight:normal;font-stretch:normal;text-align:center;line-height:125%;writing-mode:lr-tb;text-anchor:middle;fill:none;stroke:#0000ff;stroke-opacity:1;font-family:Sans;-inkscape-font-specification:Sans">Cloud</tspan></text>
<text
           xml:space="preserve"
           style="font-size:32px;font-style:normal;font-weight:normal;line-height:125%;letter-spacing:0px;word-spacing:0px;fill:none;stroke:#0000ff;stroke-opacity:1;font-family:Sans"
           x="60.831379"
           y="-599.21564"
           id="text4316"
           sodipodi:linespacing="125%"
           transform="scale(1,-1)"><tspan
             sodipodi:role="line"
             id="tspan4318"
             x="60.831379"
             y="-599.21564">Powered by</tspan></text>
<rect
           transform="scale(1,-1)"
           y="-622.22168"
           x="278.70239"
           height="107.49506"
           width="1.422487"
           id="rect4320"
           style="fill:none;stroke:#0000ff;stroke-opacity:1" /><text
           transform="scale(1,-1)"
           sodipodi:linespacing="125%"
           id="text4322"
           y="-101.29064"
           x="228.97701"
           style="font-size:32px;font-style:normal;font-weight:normal;line-height:125%;letter-spacing:0px;word-spacing:0px;fill:none;fill-opacity:1;stroke:#0000ff;font-family:Sans;stroke-opacity:1"
           xml:space="preserve"><tspan
             style="font-size:38.40000152999999727px;font-style:normal;font-variant:normal;font-weight:normal;font-stretch:normal;text-align:center;line-height:125%;letter-spacing:-2.40000010000000019px;writing-mode:lr-tb;text-anchor:middle;font-family:Sans;-inkscape-font-specification:Sans;fill:none;stroke:#0000ff;stroke-opacity:1"
             y="-101.29064"
             x="227.77701"
             sodipodi:role="line"
             id="tspan4326">M2M Cloud</tspan><tspan
             style="font-size:38.40000152999999727px;font-style:normal;font-variant:normal;font-weight:bold;font-stretch:normal;text-align:center;line-height:125%;writing-mode:lr-tb;text-anchor:middle;font-family:Sans;-inkscape-font-specification:Sans Bold;fill:none;stroke:#0000ff;stroke-opacity:1"
             y="-53.290642"
             x="228.97701"
             sodipodi:role="line"
             id="tspan4330">AirVantage<tspan
   style="font-weight:normal;-inkscape-font-specification:Sans;fill:none;stroke:#0000ff;stroke-opacity:1"
   id="tspan4387"></tspan></tspan></text>
<text
           xml:space="preserve"
           style="font-size:32px;font-style:normal;font-weight:normal;line-height:125%;letter-spacing:0px;word-spacing:0px;fill:none;fill-opacity:1;stroke:#0000ff;font-family:Sans;stroke-opacity:1"
           x="1014.7266"
           y="-98.821114"
           id="text4350"
           sodipodi:linespacing="125%"
           transform="scale(1,-1)"><tspan
             sodipodi:role="line"
             x="1013.5266"
             y="-98.821114"
             id="tspan4354"
             style="font-size:38.40000152999999727px;text-align:center;line-height:125%;letter-spacing:-2.40000010000000019px;text-anchor:middle;fill:none;stroke:#0000ff;stroke-opacity:1">Modbus PLC</tspan><tspan
             sodipodi:role="line"
             x="1014.7266"
             y="-50.821114"
             style="font-size:38.40000152999999727px;font-weight:normal;text-align:center;line-height:125%;text-anchor:middle;-inkscape-font-specification:Sans;fill:none;stroke:#0000ff;stroke-opacity:1"
             id="tspan4358">Open HW</tspan></text>
<path
           style="fill:none;stroke:#0000ff;stroke-width:0.77240264000000003px;stroke-linecap:butt;stroke-linejoin:miter;stroke-opacity:1"
           d="m 983.25017,287.07305 -298.56837,0"
           id="path5182"
           inkscape:connector-curvature="0" /><path
           style="fill:none;stroke:#0000ff;stroke-width:0.95090038000000021;stroke-linecap:butt;stroke-linejoin:miter;stroke-miterlimit:4;stroke-opacity:1;stroke-dasharray:7.60720310000000044, 7.60720310000000044;stroke-dashoffset:0"
           d="m 635.41187,286.55502 -310.61996,0"
           id="path5184"
           inkscape:connector-curvature="0" /><g
           transform="matrix(2.9720687,0,0,-3.0043625,53.175489,2517.1031)"
           id="layer1"
           inkscape:label="Layer 1"><g
             transform="matrix(1,0,0,0.85733707,-252.7747,702.77899)"
             id="g12504"><path
               style="fill:none;stroke:#0000ff;stroke-width:0.18736443;stroke-miterlimit:4;stroke-opacity:1;stroke-dasharray:none"
               d="m 336.99803,52.548128 c 8.8669,15.535536 -12.13167,13.901867 -15.83187,10.172359 -1.2956,8.105392 -19.94648,9.306101 -21.31902,-1.72617 -7.10463,8.89024 -17.87436,5.803783 -14.434,-8.212729 -7.09352,-3.452341 -12.8145,-13.026781 -0.40084,-18.205294 -4.16472,-10.142967 5.81217,-15.750867 13.38536,-10.357024 3.54676,-12.083198 18.98737,-9.170644 22.63995,0.710128 8.8669,-5.178514 26.29357,2.703351 15.18928,10.357024 10.64028,5.178511 11.41142,13.809365 0.77114,17.261706 z"
               id="path3762"
               sodipodi:nodetypes="ccccccccc"
               inkscape:connector-curvature="0" /></g></g><g
           transform="matrix(1.0341519,0,0,1.1194834,-179.10423,407.28154)"
           inkscape:label="SierraLogoTM_CMYK_horiz"
           id="g5742"
           style="fill:none;stroke:#0000ff;stroke-opacity:1"><g
             transform="translate(368.8149,293.4346)"
             id="g5744"
             style="fill:none;stroke:#0000ff;stroke-opacity:1"><path
               id="path5746"
               style="fill:none;stroke:#0000ff;stroke-opacity:1"
               d="m 0,0 -0.05,0 -4.928,-14.81 -2.929,0 -5.876,17.864 2.873,0 4.579,-14.512 0.05,0 4.78,14.512 3.152,0 4.904,-14.512 0.051,0 4.555,14.512 2.752,0 -6.056,-17.864 -2.903,0 L 0,0 z"
               inkscape:connector-curvature="0" /></g><path
             id="path5748"
             style="fill:none;stroke:#0000ff;stroke-opacity:1"
             d="m 390.702,296.488 2.654,0 0,-17.863 -2.654,0 0,17.863 z"
             inkscape:connector-curvature="0" /><g
             id="g5750"
             style="fill:none;stroke:#0000ff;stroke-opacity:1"><g
               clip-path="url(#clipPath5754)"
               id="g5752"
               style="fill:none;stroke:#0000ff;stroke-opacity:1"><g
                 transform="translate(413.5967,288.5078)"
                 id="g5758"
                 style="fill:none;stroke:#0000ff;stroke-opacity:1"><path
                   id="path5760"
                   style="fill:none;stroke:#0000ff;stroke-opacity:1"
                   d="m 0,0 c 2.604,0 3.226,1.573 3.226,2.824 0,1.702 -1.026,2.851 -3.152,2.851 l -7.482,0 L -7.408,0 0,0 z M -10.059,7.98 1,7.98 c 3.579,0 4.879,-2.475 4.879,-4.751 0,-2.18 -1.054,-3.778 -3.005,-4.404 l 0,-0.053 C 4.451,-1.453 5.379,-2.925 5.478,-5.027 5.63,-8.355 5.729,-9.185 6.33,-9.883 l -2.805,0 c -0.423,0.498 -0.423,1.249 -0.548,3.4 -0.176,3.205 -1.25,4.18 -3.45,4.18 l -6.935,0 0,-7.58 -2.651,0 0,17.863 z"
                   inkscape:connector-curvature="0" /></g><g
                 transform="translate(428.4316,296.4883)"
                 id="g5762"
                 style="fill:none;stroke:#0000ff;stroke-opacity:1"><path
                   id="path5764"
                   style="fill:none;stroke:#0000ff;stroke-opacity:1"
                   d="m 0,0 14.359,0 0,-2.306 -11.708,0 0,-5.174 11.36,0 0,-2.302 -11.36,0 0,-5.778 11.959,0 0,-2.303 -14.61,0 L 0,0 z"
                   inkscape:connector-curvature="0" /></g><g
                 transform="translate(452.1475,296.4883)"
                 id="g5766"
                 style="fill:none;stroke:#0000ff;stroke-opacity:1"><path
                   id="path5768"
                   style="fill:none;stroke:#0000ff;stroke-opacity:1"
                   d="m 0,0 2.649,0 0,-15.56 10.863,0 0,-2.303 L 0,-17.863 0,0 z"
                   inkscape:connector-curvature="0" /></g><g
                 transform="translate(473.8125,296.4883)"
                 id="g5770"
                 style="fill:none;stroke:#0000ff;stroke-opacity:1"><path
                   id="path5772"
                   style="fill:none;stroke:#0000ff;stroke-opacity:1"
                   d="m 0,0 14.361,0 0,-2.306 -11.713,0 0,-5.174 11.362,0 0,-2.302 -11.362,0 0,-5.778 11.962,0 0,-2.303 -14.61,0 L 0,0 z"
                   inkscape:connector-curvature="0" /></g><g
                 transform="translate(498.5508,284.5029)"
                 id="g5774"
                 style="fill:none;stroke:#0000ff;stroke-opacity:1"><path
                   id="path5776"
                   style="fill:none;stroke:#0000ff;stroke-opacity:1"
                   d="m 0,0 c 0.05,-3.202 3.059,-4.025 5.757,-4.025 2.827,0 4.828,1.072 4.828,3.023 0,1.629 -1.277,2.306 -3.328,2.656 L 3.205,2.326 c -2.13,0.352 -5.306,1.201 -5.306,4.682 0,3.248 2.579,5.43 7.161,5.43 3.574,0 7.353,-1.302 7.602,-5.609 l -2.651,0 C 9.782,8.235 8.982,10.133 4.705,10.133 2.754,10.133 0.548,9.308 0.548,7.207 0.548,6.103 1.277,5.229 3.48,4.854 L 7.857,4.107 c 1.404,-0.252 5.379,-0.925 5.379,-4.583 0,-4.551 -4.075,-5.852 -7.681,-5.852 -4.029,0 -8.206,1.396 -8.206,6.328 L 0,0 z"
                   inkscape:connector-curvature="0" /></g><g
                 transform="translate(521.2412,284.5029)"
                 id="g5778"
                 style="fill:none;stroke:#0000ff;stroke-opacity:1"><path
                   id="path5780"
                   style="fill:none;stroke:#0000ff;stroke-opacity:1"
                   d="m 0,0 c 0.053,-3.202 3.056,-4.025 5.757,-4.025 2.827,0 4.825,1.072 4.825,3.023 0,1.629 -1.271,2.306 -3.328,2.656 L 3.205,2.326 c -2.124,0.352 -5.306,1.201 -5.306,4.682 0,3.248 2.579,5.43 7.158,5.43 3.577,0 7.356,-1.302 7.608,-5.609 l -2.657,0 C 9.785,8.235 8.985,10.133 4.705,10.133 2.754,10.133 0.557,9.308 0.557,7.207 0.557,6.103 1.274,5.229 3.48,4.854 L 7.857,4.107 c 1.401,-0.252 5.379,-0.925 5.379,-4.583 0,-4.551 -4.075,-5.852 -7.681,-5.852 -4.029,0 -8.206,1.396 -8.206,6.328 L 0,0 z"
                   inkscape:connector-curvature="0" /></g><g
                 transform="translate(360.5186,335.7227)"
                 id="g5782"
                 style="fill:none;stroke:#0000ff;stroke-opacity:1"><path
                   id="path5784"
                   style="fill:none;stroke:#0000ff;stroke-opacity:1"
                   d="m 0,0 c 4.33,0 12.992,-0.788 13.739,-8.938 l -6.378,0 c -0.198,2.165 -2.165,4.526 -7.084,4.526 -3.939,0 -6.536,-1.217 -6.536,-3.853 0,-6.615 20.944,-0.278 20.944,-12.284 0,-7.245 -7.522,-9.132 -13.503,-9.132 -10.115,0 -14.171,3.973 -14.253,9.878 l 6.38,0 c 0.156,-3.697 3.228,-5.471 8.071,-5.471 3.578,0 6.927,1.066 6.927,4.132 0,6.971 -20.707,0.904 -20.707,12.441 C -12.4,-2.443 -6.848,0 0,0"
                   inkscape:connector-curvature="0" /></g><g
                 transform="translate(385.6729,334.9346)"
                 id="g5786"
                 style="fill:none;stroke:#0000ff;stroke-opacity:1"><path
                   id="path5788"
                   style="fill:none;stroke:#0000ff;stroke-opacity:1"
                   d="m 0,0 c 0,0 -0.009,-25.538 -0.009,-25.568 0,-1.629 1.32,-2.945 2.95,-2.945 1.626,0 2.95,1.316 2.95,2.945 C 5.891,-25.559 5.902,0 5.902,0 L 0,0 z"
                   inkscape:connector-curvature="0" /></g><g
                 transform="translate(424.7588,323.4395)"
                 id="g5790"
                 style="fill:none;stroke:#0000ff;stroke-opacity:1"><path
                   id="path5792"
                   style="fill:none;stroke:#0000ff;stroke-opacity:1"
                   d="m 0,0 c 1.225,0 2.205,-0.977 2.205,-2.195 0,-1.219 -0.987,-2.204 -2.212,-2.204 l -0.009,0 0,-0.011 -14.967,0 0,-7.794 18.817,0 0,-4.405 -24.723,0 0,28.104 24.407,0 0,-4.41 -18.501,0 0,-7.087 14.795,0 L 0,0 z"
                   inkscape:connector-curvature="0" /></g><g
                 transform="translate(523.8115,318.2031)"
                 id="g5794"
                 style="fill:none;stroke:#0000ff;stroke-opacity:1"><path
                   id="path5796"
                   style="fill:none;stroke:#0000ff;stroke-opacity:1"
                   d="M 0,0 4.805,11.851 9.686,0 0,0 z m 8.229,16.731 -6.858,0 -10.743,-24.15 c -0.189,-0.48 -0.363,-0.893 -0.363,-1.399 0,-1.664 1.198,-3.003 2.853,-3.003 1.336,0 2.372,0.915 2.845,2.089 l 0.095,0.235 2.172,5.091 13.225,0 2.915,-6.967 6.381,0 -12.522,28.104 z"
                   inkscape:connector-curvature="0" /></g><g
                 transform="translate(494.5732,322.3369)"
                 id="g5798"
                 style="fill:none;stroke:#0000ff;stroke-opacity:1"><path
                   id="path5800"
                   style="fill:none;stroke:#0000ff;stroke-opacity:1"
                   d="m 0,0 -10.195,0 0,8.188 10.195,0 C 3.111,8.188 5.042,7.043 5.042,4.136 5.042,0.987 3.267,0 0,0 m 10.632,-9.486 c 0,3.977 -0.747,6.884 -4.096,7.596 l 0,0.079 c 2.64,0.83 4.65,3.109 4.65,6.774 0,4.365 -2.327,7.635 -9.49,7.635 l -17.795,0 c 0,0 0.015,-25.562 0.015,-25.569 0,-1.629 1.321,-2.944 2.95,-2.944 1.629,0 2.947,1.315 2.947,2.944 0,0.025 -0.008,8.559 -0.008,8.559 l 10.043,0 c 4.327,0 4.878,-2.83 4.878,-6.845 0,-2.05 0.275,-3.463 0.709,-4.25 l 6.378,0 c -1.146,1.532 -1.181,4.685 -1.181,6.021"
                   inkscape:connector-curvature="0" /></g><g
                 transform="translate(455.8594,322.3369)"
                 id="g5802"
                 style="fill:none;stroke:#0000ff;stroke-opacity:1"><path
                   id="path5804"
                   style="fill:none;stroke:#0000ff;stroke-opacity:1"
                   d="m 0,0 -10.193,0 0,8.188 10.193,0 C 3.106,8.188 5.037,7.043 5.037,4.136 5.037,0.987 3.268,0 0,0 m 10.627,-9.486 c 0,3.977 -0.744,6.884 -4.093,7.596 l 0,0.079 c 2.637,0.83 4.647,3.109 4.647,6.774 0,4.365 -2.321,7.635 -9.49,7.635 l -17.79,0 c 0,0 0.012,-25.562 0.012,-25.569 0,-1.629 1.318,-2.944 2.947,-2.944 1.629,0 2.951,1.315 2.951,2.944 0,0.025 -0.004,8.559 -0.004,8.559 l 10.035,0 c 4.328,0 4.882,-2.83 4.882,-6.845 0,-2.05 0.278,-3.463 0.712,-4.25 l 6.375,0 c -1.143,1.532 -1.184,4.685 -1.184,6.021"
                   inkscape:connector-curvature="0" /></g><g
                 transform="translate(545.3301,291.6855)"
                 id="g5806"
                 style="fill:none;stroke:#0000ff;stroke-opacity:1"><path
                   id="path5808"
                   style="fill:none;stroke:#0000ff;stroke-opacity:1"
                   d="m 0,0 0,3.956 -0.023,0 L -1.575,0 -2.07,0 l -1.553,3.956 -0.023,0 0,-3.956 -0.782,0 0,4.738 1.208,0 1.415,-3.599 1.391,3.599 1.196,0 L 0.782,0 0,0 z m -6.877,4.105 0,-4.105 -0.781,0 0,4.105 -1.485,0 0,0.633 3.749,0 0,-0.633 -1.483,0 z"
                   inkscape:connector-curvature="0" /></g><g
                 transform="translate(302.0786,319.6895)"
                 id="g5810"
                 style="fill:none;stroke:#0000ff;stroke-opacity:1"><path
                   id="path5812"
                   style="fill:none;stroke:#0000ff;stroke-opacity:1"
                   d="m 0,0 c 1.28,-0.015 2.339,-1.092 2.46,-2.466 0,-0.165 0.026,-1.614 0.055,-1.917 0.116,-1.414 0.896,-2.665 2.065,-3.336 0.614,-0.385 1.305,-0.588 2.007,-0.588 0.098,0 0.195,0.004 0.274,0.011 0.124,0.003 1.318,0.016 1.324,0.016 1.284,-0.013 2.339,-1.089 2.461,-2.504 0,0 0.15,-1.894 0.152,-1.945 0.199,-2.268 2.112,-4.027 4.265,-3.849 0.998,0.076 1.916,0.553 2.582,1.336 0.72,0.849 1.076,1.99 0.979,3.137 -0.175,2.054 -1.772,3.706 -3.731,3.841 l -1.849,0.082 c -1.313,0.042 -2.387,1.086 -2.496,2.407 -0.009,0.178 -0.089,1.728 -0.109,1.951 -0.091,1.119 -0.6,2.14 -1.418,2.861 C 8.417,-0.4 7.677,-0.043 6.894,0.057 6.622,0.098 6.364,0.105 6.061,0.086 5.81,0.086 4.865,0.098 4.855,0.098 3.544,0.141 2.472,1.186 2.359,2.527 L 2.187,4.512 C 2.017,6.482 0.559,8.09 -1.276,8.332 -1.563,8.376 -1.835,8.389 -2.113,8.365 -4.057,8.216 -5.586,6.533 -5.67,4.439 L -5.711,2.461 C -5.729,1.043 -6.663,-0.1 -7.844,-0.198 c -0.166,-0.007 -1.605,-0.06 -1.823,-0.073 -1.075,-0.084 -2.042,-0.624 -2.705,-1.5 -0.503,-0.63 -0.812,-1.399 -0.895,-2.215 -0.029,-0.297 -0.038,-0.588 -0.018,-0.851 0.006,-0.123 0.018,-1.336 0.018,-1.336 -0.018,-1.423 -0.944,-2.567 -2.158,-2.665 l -1.842,-0.147 c -1.791,-0.14 -3.229,-1.503 -3.496,-3.312 -0.04,-0.266 -0.065,-0.881 -0.067,-1.012 l -0.041,-1.771 c 0.007,-1.385 -0.938,-2.508 -2.207,-2.625 -0.118,0.002 -0.5,0.014 -0.888,0.014 -0.438,0 -0.74,-0.014 -0.923,-0.04 -1.386,-0.195 -2.513,-0.99 -3.09,-2.171 -0.392,-0.737 -0.562,-1.571 -0.488,-2.393 0.006,-0.121 0.035,-1.43 0.035,-1.43 0.023,-1.394 -0.934,-2.521 -2.224,-2.621 -1.025,-0.047 -3.212,-0.09 -3.212,-0.09 -1.281,0.012 -2.342,1.091 -2.463,2.502 l -0.043,0.628 c -0.014,0.144 -0.006,0.355 0,0.565 0,0.261 0.01,0.508 -0.008,0.694 -0.115,1.417 -0.907,2.672 -2.084,3.344 -0.695,0.426 -1.52,0.619 -2.272,0.558 l -0.126,-0.005 c -0.108,-0.006 -0.243,-0.015 -0.328,-0.021 l -0.865,0.017 c -1.28,0.009 -2.334,1.091 -2.462,2.509 l -0.148,1.788 c 0.003,0.044 0.003,0.094 -0.003,0.15 -0.194,2.268 -2.119,4.016 -4.263,3.848 -0.996,-0.078 -1.915,-0.55 -2.578,-1.333 -0.72,-0.849 -1.081,-1.99 -0.985,-3.142 0.176,-2.053 1.78,-3.697 3.736,-3.835 l 1.854,-0.083 c 1.308,-0.045 2.384,-1.085 2.492,-2.406 l 0.074,-1.48 c 0.005,-0.178 0.015,-0.318 0.027,-0.474 0.097,-1.128 0.608,-2.153 1.431,-2.872 0.601,-0.555 1.328,-0.902 2.102,-1.006 0.278,-0.041 0.545,-0.051 0.842,-0.034 0.245,0 1.213,-0.005 1.213,-0.007 1.309,-0.043 2.379,-1.092 2.495,-2.432 l 0.169,-1.981 c 0.169,-1.97 1.632,-3.581 3.468,-3.827 0.194,-0.026 0.38,-0.04 0.563,-0.04 0.089,0 0.185,0.002 0.273,0.012 1.943,0.153 3.475,1.834 3.556,3.922 l 0.042,1.979 c 0.016,1.42 0.95,2.565 2.143,2.658 0,0 1.612,0.064 1.814,0.08 1.07,0.082 2.034,0.618 2.696,1.488 0.509,0.633 0.823,1.406 0.906,2.218 0.031,0.3 0.037,0.594 0.013,0.856 0,0.124 -0.013,1.34 -0.013,1.34 0.013,1.422 0.946,2.567 2.157,2.66 l 1.844,0.145 c 1.773,0.14 3.234,1.495 3.551,3.281 0.009,0.053 0.018,0.09 0.054,0.893 l -0.002,1.929 c -0.009,1.397 0.947,2.525 2.236,2.625 l 0.382,0.032 0.078,0 c 0.117,0 0.281,-0.006 0.455,-0.01 0.321,-0.012 0.662,-0.018 0.831,-0.006 1.344,0.107 2.513,0.928 3.125,2.178 0.347,0.665 0.515,1.463 0.487,2.372 -0.015,0.528 -0.043,1.448 -0.043,1.448 -0.012,1.397 0.95,2.523 2.23,2.626 0,0 2.513,0.097 3.215,0.085"
                   inkscape:connector-curvature="0" /></g><g
                 transform="translate(278.105,317.3926)"
                 id="g5814"
                 style="fill:none;stroke:#0000ff;stroke-opacity:1"><path
                   id="path5816"
                   style="fill:none;stroke:#0000ff;stroke-opacity:1"
                   d="m 0,0 c 1.25,0.103 2.189,1.262 2.175,2.697 0,0 -0.029,1.326 -0.041,1.46 -0.066,0.858 0.097,1.706 0.479,2.456 0.604,1.291 1.766,2.143 3.094,2.248 0.06,0.004 0.239,0.018 1.377,0.018 l 0.364,0 c 1.24,0.117 2.169,1.269 2.157,2.695 l 0.01,2.007 c 0.026,2.207 1.541,3.993 3.52,4.153 2.126,0.178 4.019,-1.626 4.211,-3.957 0.024,-0.289 0.019,-0.584 -0.013,-0.87 C 17.154,10.882 15.681,9.295 13.821,9.143 L 12.014,8.996 C 10.829,8.895 9.923,7.721 9.905,6.26 c 0,0 0.013,-1.238 0.018,-1.373 C 9.944,4.607 9.942,4.303 9.905,3.996 9.827,3.17 9.52,2.383 9.023,1.734 8.362,0.834 7.409,0.285 6.345,0.197 6.145,0.18 4.726,0.121 4.564,0.113 3.4,0.02 2.496,-1.154 2.478,-2.613 L 2.441,-4.658 c -0.091,-2.143 -1.6,-3.869 -3.52,-4.028 -0.09,-0.004 -0.181,-0.007 -0.273,-0.007 -0.173,0 -0.363,0.011 -0.555,0.043 -1.813,0.252 -3.256,1.904 -3.423,3.928 l -0.163,2.038 c -0.116,1.375 -1.164,2.45 -2.442,2.499 l -1.076,0.025 c -0.14,-0.011 -0.365,-0.009 -0.508,-0.009 -0.194,0 -0.336,0.011 -0.448,0.024 -0.762,0.11 -1.484,0.473 -2.084,1.051 -0.8,0.74 -1.296,1.785 -1.391,2.936 -0.021,0.228 -0.099,1.822 -0.103,2.006 -0.112,1.355 -1.226,2.562 -2.498,2.604 l -1.825,0.089 c -1.938,0.136 -3.519,1.829 -3.693,3.943 -0.093,1.198 0.266,2.387 1.004,3.262 0.654,0.776 1.551,1.253 2.516,1.333 0.102,0.007 0.199,0.011 0.297,0.011 2.016,0 3.736,-1.744 3.918,-3.969 0.002,-0.072 0.154,-1.994 0.154,-1.994 0.114,-1.455 1.215,-2.695 2.469,-2.709 0.002,0.002 1.163,0.012 1.291,0.018 0.08,0.008 0.175,0.01 0.274,0.01 0.696,0 1.382,-0.206 1.986,-0.602 1.153,-0.686 1.923,-1.971 2.042,-3.428 0.026,-0.32 0.05,-1.804 0.054,-1.975 0.111,-1.411 1.145,-2.515 2.406,-2.531 0,0 2.004,0.026 3.15,0.09"
                   inkscape:connector-curvature="0" /></g><g
                 transform="translate(254.5444,317.9922)"
                 id="g5818"
                 style="fill:none;stroke:#0000ff;stroke-opacity:1"><path
                   id="path5820"
                   style="fill:none;stroke:#0000ff;stroke-opacity:1"
                   d="m 0,0 c 1.252,-0.016 2.597,-1.48 2.715,-2.891 0.006,-0.171 0.028,-1.654 0.055,-1.97 0.118,-1.452 0.894,-2.733 2.057,-3.424 0.603,-0.392 1.292,-0.599 1.989,-0.599 0.101,0 0.194,0.006 0.273,0.012 0.128,0.003 1.303,0.012 1.303,0.012 1.252,-0.012 2.281,-1.115 2.403,-2.565 0,0 0.145,-1.864 0.151,-1.994 0.196,-2.329 2.078,-4.132 4.231,-3.956 2.149,0.18 3.73,2.234 3.536,4.589 -0.169,2.11 -1.755,3.802 -3.702,3.94 l -1.829,0.089 c -1.276,0.043 -2.331,1.117 -2.441,2.472 -0.007,0.181 -0.084,1.771 -0.101,1.998 -0.098,1.144 -0.597,2.189 -1.394,2.932 -0.602,0.58 -1.329,0.943 -2.093,1.049 -0.284,0.043 -0.597,0.058 -0.834,0.037 l -0.105,0 c -0.321,0 -1.094,0.006 -1.109,0.006 C 3.827,-0.215 2.47,1.217 2.354,2.594 L 2.188,4.626 C 2.022,6.651 0.569,8.307 -1.259,8.557 -1.441,8.582 -1.62,8.596 -1.799,8.596 -1.892,8.596 -1.987,8.594 -2.09,8.584 -4.011,8.426 -5.531,6.702 -5.616,4.563 L -5.66,2.522 c -0.012,-1.459 -0.922,-2.631 -2.082,-2.725 -0.16,-0.006 -1.582,-0.06 -1.796,-0.078 -1.07,-0.087 -2.03,-0.641 -2.694,-1.549 -0.497,-0.649 -0.801,-1.44 -0.879,-2.274 -0.032,-0.281 -0.037,-0.578 -0.014,-0.88 0.19,-2.333 2.091,-4.128 4.237,-3.955 1.338,0.108 2.501,0.955 3.106,2.244 0.382,0.75 0.548,1.601 0.479,2.448 -0.006,0.128 -0.036,1.464 -0.036,1.464 -0.016,1.433 0.92,2.589 2.18,2.69 0,0 1.86,0.099 3.159,0.093"
                   inkscape:connector-curvature="0" /></g><g
                 transform="translate(295.2168,295.6045)"
                 id="g5822"
                 style="fill:none;stroke:#0000ff;stroke-opacity:1"><path
                   id="path5824"
                   style="fill:none;stroke:#0000ff;stroke-opacity:1"
                   d="M 0,0 C 1.253,-0.015 2.288,-1.122 2.404,-2.534 2.409,-2.7 2.427,-4.187 2.453,-4.509 2.572,-5.96 3.348,-7.247 4.496,-7.933 5.101,-8.327 5.79,-8.536 6.481,-8.536 c 0.092,0 0.193,0.002 0.271,0.012 0.13,0.005 1.293,0.013 1.293,0.013 1.252,-0.01 2.442,-1.224 2.561,-2.679 0,0 0.152,-1.922 0.158,-1.997 0.184,-2.224 1.903,-3.968 3.914,-3.968 0.099,0 0.196,0.006 0.297,0.015 0.969,0.078 1.861,0.553 2.52,1.332 0.734,0.871 1.098,2.06 0.999,3.259 -0.173,2.114 -1.755,3.808 -3.694,3.945 l -1.819,0.087 c -1.276,0.043 -2.482,1.227 -2.591,2.58 -0.008,0.184 -0.085,1.775 -0.103,2.006 -0.097,1.15 -0.594,2.197 -1.393,2.934 -0.6,0.578 -1.321,0.941 -2.081,1.051 C 6.704,0.069 6.553,0.076 6.365,0.076 6.221,0.076 5.989,0.071 5.852,0.063 L 4.78,0.098 C 3.499,0.146 2.451,1.218 2.338,2.594 L 2.175,4.63 C 2.008,6.657 0.563,8.312 -1.251,8.561 -1.443,8.595 -1.626,8.604 -1.802,8.604 -1.896,8.604 -1.988,8.603 -2.078,8.595 -4,8.438 -5.508,6.714 -5.595,4.567 L -5.635,2.526 C -5.649,1.065 -6.557,-0.107 -7.719,-0.203 -7.878,-0.21 -9.3,-0.268 -9.503,-0.287 c -1.064,-0.086 -2.015,-0.636 -2.677,-1.537 -0.495,-0.646 -0.8,-1.431 -0.883,-2.259 -0.033,-0.305 -0.039,-0.613 -0.014,-0.893 0.006,-0.133 0.012,-1.373 0.012,-1.373 -0.012,-1.462 -0.918,-2.634 -2.107,-2.736 l -1.807,-0.146 c -1.858,-0.151 -3.332,-1.739 -3.512,-3.764 -0.032,-0.287 -0.036,-0.582 -0.011,-0.873 0.191,-2.33 2.083,-4.132 4.21,-3.955 1.979,0.162 3.496,1.944 3.52,4.152 l 0.012,2.006 c -0.012,1.426 0.915,2.58 2.157,2.697 l 0.363,0 c 1.137,0 1.319,0.012 1.376,0.018 1.331,0.107 2.494,0.957 3.094,2.246 0.383,0.752 0.547,1.602 0.478,2.459 -0.01,0.135 -0.036,1.462 -0.036,1.462 -0.016,1.43 0.922,2.59 2.175,2.691 0,0 1.017,0.112 3.153,0.092"
                   inkscape:connector-curvature="0" /></g><g
                 transform="translate(318.6323,294.9092)"
                 id="g5826"
                 style="fill:none;stroke:#0000ff;stroke-opacity:1"><path
                   id="path5828"
                   style="fill:none;stroke:#0000ff;stroke-opacity:1"
                   d="m 0,0 c 1.253,0.101 2.182,1.251 2.161,2.675 0,0 -0.028,1.33 -0.035,1.455 C 2.055,4.976 2.222,5.826 2.604,6.57 3.203,7.854 4.354,8.694 5.677,8.802 7.798,8.974 9.683,7.187 9.868,4.865 9.892,4.565 9.887,4.27 9.854,3.989 9.779,3.161 9.476,2.37 8.983,1.726 8.325,0.823 7.374,0.272 6.319,0.187 6.108,0.169 4.7,0.111 4.538,0.108 3.387,0.014 2.491,-1.152 2.477,-2.603 L 2.434,-4.632 C 2.352,-6.765 0.847,-8.479 -1.06,-8.636 c -0.092,-0.01 -0.187,-0.011 -0.285,-0.011 -0.171,0 -0.351,0.013 -0.533,0.041 -1.808,0.244 -3.247,1.89 -3.417,3.908 l -0.163,2.022 c -0.111,1.372 -1.46,2.795 -2.721,2.843 -0.014,0 -0.781,0.008 -1.099,0.008 L -9.385,0.173 c -0.232,-0.022 -0.538,-0.006 -0.819,0.036 -0.758,0.107 -1.479,0.47 -2.072,1.044 -0.794,0.74 -1.288,1.779 -1.381,2.919 -0.019,0.222 -0.095,1.807 -0.103,1.985 -0.108,1.354 -1.15,2.42 -2.418,2.465 l -1.81,0.084 c -1.929,0.14 -3.495,1.826 -3.661,3.924 -0.193,2.342 1.378,4.389 3.496,4.563 2.135,0.174 3.998,-1.614 4.188,-3.933 0.007,-0.131 0.15,-1.983 0.15,-1.983 0.121,-1.445 1.147,-2.544 2.383,-2.553 0,0 1.163,0.004 1.288,0.009 0.079,0.01 0.176,0.014 0.269,0.014 0.69,0 1.374,-0.208 1.975,-0.595 1.145,-0.688 1.914,-1.964 2.03,-3.408 0.028,-0.313 0.054,-1.794 0.054,-1.96 0.12,-1.406 1.452,-2.86 2.688,-2.879 0,0 2.274,0.045 3.128,0.095"
                   inkscape:connector-curvature="0" /></g><g
                 transform="translate(233.0005,302.7461)"
                 id="g5830"
                 style="fill:none;stroke:#0000ff;stroke-opacity:1"><path
                   id="path5832"
                   style="fill:none;stroke:#0000ff;stroke-opacity:1"
                   d="m 0,0 c 0.192,-2.262 2.088,-4.008 4.288,-3.836 1.06,0.083 2.017,0.6 2.696,1.459 0.656,0.836 0.97,1.897 0.878,2.992 C 7.676,2.775 5.926,4.466 3.875,4.466 3.773,4.466 3.671,4.462 3.579,4.453 1.411,4.285 -0.193,2.287 0,0"
                   inkscape:connector-curvature="0" /></g><g
                 transform="translate(329.2876,309.3438)"
                 id="g5834"
                 style="fill:none;stroke:#0000ff;stroke-opacity:1"><path
                   id="path5836"
                   style="fill:none;stroke:#0000ff;stroke-opacity:1"
                   d="m 0,0 c 0.19,-2.262 2.087,-4.008 4.283,-3.84 1.063,0.084 2.02,0.605 2.696,1.459 0.662,0.839 0.972,1.902 0.879,2.998 C 7.678,2.774 5.926,4.465 3.872,4.465 3.775,4.465 3.674,4.461 3.574,4.453 1.408,4.282 -0.193,2.285 0,0"
                   inkscape:connector-curvature="0" /></g></g></g></g></g></g></g></svg>